<?xml version="1.0" encoding="UTF-8"?>
<svg viewBox="0 0 40 40" version="1.1" xmlns="http://www.w3.org/2000/svg" xmlns:xlink="http://www.w3.org/1999/xlink">
    <title>Concepto_40x40</title>
    <g id="Concepto_40x40" stroke="none" stroke-width="1" fill="none" fill-rule="evenodd">
        <g id="shutterstock_1267776061" transform="translate(0.000000, 2.000000)">
            <polyline id="Fill-6" fill="#FCE3A2" points="9.76295238 18.1852381 34.0574286 18.1852381 35.7444762 15.4859048 10.1001905 15.4859048 9.76295238 18.1852381"></polyline>
            <path d="M34.0574286,18.4724762 L9.76295238,18.4724762 C9.60428571,18.4724762 9.47580952,18.3439048 9.47580952,18.1852381 C9.47580952,18.0266667 9.60428571,17.8980952 9.76295238,17.8980952 L33.8982857,17.8980952 L35.2265714,15.7729524 L10.1002857,15.7729524 C9.94161905,15.7729524 9.81314286,15.6444762 9.81314286,15.4858095 C9.81314286,15.3272381 9.94161905,15.1986667 10.1002857,15.1986667 L35.7445714,15.1986667 C35.8488571,15.1986667 35.9451429,15.2553333 35.995619,15.3466667 C36.0462857,15.438 36.0433333,15.5494286 35.9881905,15.638 L34.3009524,18.3374286 C34.248381,18.4213333 34.1564762,18.4724762 34.0574286,18.4724762" id="Fill-7" fill="#0A0B09"></path>
            <polyline id="Fill-8" fill="#DFB95C" points="10.1001905 20.8846667 35.7444762 20.8846667 34.0574286 18.1852381 9.76295238 18.1852381 10.1001905 20.8846667"></polyline>
            <path d="M35.7445714,21.1718095 L10.1002857,21.1718095 C9.94161905,21.1718095 9.81314286,21.0433333 9.81314286,20.8846667 C9.81314286,20.7260952 9.94161905,20.5975238 10.1002857,20.5975238 L35.2265714,20.5975238 L33.8982857,18.4724762 L9.76295238,18.4724762 C9.60428571,18.4724762 9.47580952,18.3439048 9.47580952,18.1852381 C9.47580952,18.0266667 9.60428571,17.8980952 9.76295238,17.8980952 L34.0574286,17.8980952 C34.1564762,17.8980952 34.248381,17.9491429 34.3009524,18.0330476 L35.9881905,20.7324762 C36.0433333,20.8210476 36.0462857,20.9325714 35.995619,21.0238095 C35.9451429,21.1152381 35.8488571,21.1718095 35.7445714,21.1718095" id="Fill-9" fill="#0A0B09"></path>
            <polyline id="Fill-10" fill="#FFFFFE" points="35.7444762 15.4859048 34.0574286 18.1852381 35.7444762 20.8846667 37.0941905 19.9030476 37.0941905 16.4674286 35.7444762 15.4859048"></polyline>
            <path d="M34.3959048,18.1852381 L35.8247619,20.4712381 L36.8072381,19.7569524 L36.8072381,16.6137143 L35.8247619,15.8992381 L34.3959048,18.1852381 Z M35.7445714,21.1718095 C35.7262857,21.1718095 35.7081905,21.1700952 35.6898095,21.1665714 C35.611619,21.1513333 35.5432381,21.1044762 35.5010476,21.0368571 L33.8138095,18.3374286 C33.7557143,18.2442857 33.7557143,18.1261905 33.8138095,18.0330476 L35.5010476,15.333619 C35.5432381,15.2660952 35.611619,15.2191429 35.6898095,15.2039048 C35.7690476,15.1890476 35.8492381,15.2068571 35.9134286,15.253619 L37.2631429,16.2353333 C37.3375238,16.2893333 37.3815238,16.375619 37.3815238,16.4675238 L37.3815238,19.9030476 C37.3815238,19.9949524 37.3375238,20.0813333 37.2631429,20.1353333 L35.9134286,21.1169524 C35.864,21.1528571 35.8047619,21.1718095 35.7445714,21.1718095 L35.7445714,21.1718095 Z" id="Fill-11" fill="#0A0B09"></path>
            <polyline id="Fill-12" fill="#8A8096" points="37.0941905 16.4674286 37.0941905 19.9030476 39.4561905 18.1852381 37.0941905 16.4674286"></polyline>
            <path d="M37.3815238,17.0314286 L37.3815238,19.3392381 L38.9680952,18.1852381 L37.3815238,17.0314286 Z M37.0942857,20.1902857 C37.0498095,20.1902857 37.0051429,20.18 36.964,20.1590476 C36.8677143,20.11 36.8072381,20.0110476 36.8072381,19.9030476 L36.8072381,16.4675238 C36.8072381,16.3595238 36.8677143,16.2606667 36.964,16.2115238 C37.0602857,16.1625714 37.1760952,16.171619 37.2631429,16.2353333 L39.6250476,17.9530476 C39.6994286,18.0071429 39.7434286,18.0933333 39.7434286,18.1852381 C39.7434286,18.2771429 39.6994286,18.3634286 39.6250476,18.4174286 L37.2631429,20.1352381 C37.2132381,20.1717143 37.1539048,20.1902857 37.0942857,20.1902857 L37.0942857,20.1902857 Z" id="Fill-13" fill="#0A0B09"></path>
            <path d="M27.969619,20.8846667 L27.969619,20.8847619 C26.7793333,25.3533333 22.7045714,28.6453333 17.8611429,28.6453333 C12.0840952,28.6453333 7.40095238,23.9622857 7.40095238,18.1852381 C7.40095238,12.4082857 12.0840952,7.72514286 17.8611429,7.72514286 C22.7045714,7.72514286 26.7793333,11.0172381 27.969619,15.4859048 L31.0875238,15.4859048 C30.7377143,13.7628571 30.0581905,12.1602857 29.1200952,10.7437143 L30.268,9.59580952 C30.7951429,9.0687619 30.7951429,8.21419048 30.268,7.68704762 L28.3592381,5.77828571 C27.8320952,5.2512381 26.977619,5.2512381 26.4504762,5.77828571 L25.3026667,6.92619048 C23.8860952,5.98809524 22.2835238,5.30857143 20.5604762,4.95885714 L20.5604762,3.33866667 C20.5604762,2.5932381 19.9561905,1.98895238 19.2107619,1.98895238 L16.5114286,1.98895238 C15.7659048,1.98895238 15.1617143,2.5932381 15.1617143,3.33866667 L15.1617143,4.95885714 C13.4386667,5.30857143 11.8360952,5.98809524 10.4195238,6.92619048 L9.27171429,5.77828571 C8.74457143,5.2512381 7.89,5.2512381 7.36295238,5.77828571 L5.45419048,7.68704762 C4.92704762,8.21419048 4.92704762,9.0687619 5.45419048,9.59580952 L6.60209524,10.7437143 C5.66390476,12.1602857 4.98438095,13.7628571 4.63466667,15.4859048 L3.01438095,15.4859048 C2.26904762,15.4859048 1.66466667,16.0901905 1.66466667,16.8355238 L1.66466667,19.5349524 C1.66466667,20.280381 2.26904762,20.8846667 3.01438095,20.8846667 L4.63466667,20.8846667 C4.98438095,22.607619 5.66390476,24.2102857 6.602,25.6267619 L5.45419048,26.7746667 C4.92704762,27.3017143 4.92704762,28.156381 5.45419048,28.6834286 L7.36295238,30.5921905 C7.89,31.1192381 8.74457143,31.1192381 9.27171429,30.5921905 L10.4195238,29.4442857 C11.8360952,30.3824762 13.4386667,31.0619048 15.1617143,31.4117143 L15.1617143,33.0319048 C15.1617143,33.7773333 15.7659048,34.381619 16.5114286,34.381619 L19.2107619,34.381619 C19.9561905,34.381619 20.5604762,33.7773333 20.5604762,33.0319048 L20.5604762,31.4117143 C22.2835238,31.0619048 23.8860952,30.3824762 25.3026667,29.4442857 L26.4504762,30.5921905 C26.977619,31.1192381 27.8320952,31.1192381 28.3592381,30.5921905 L30.268,28.6834286 C30.7951429,28.156381 30.7951429,27.3017143 30.268,26.7746667 L29.1201905,25.6267619 C30.0581905,24.2102857 30.7377143,22.607619 31.0875238,20.8846667 L27.969619,20.8846667" id="Fill-14" fill="#6DC3C6"></path>
            <path d="M10.419619,29.1572381 C10.4744762,29.1572381 10.5297143,29.1729524 10.5780952,29.2048571 C11.9985714,30.1458095 13.56,30.7934286 15.2187619,31.1302857 C15.3526667,31.1573333 15.4487619,31.2750476 15.4487619,31.411619 L15.4487619,33.0319048 C15.4487619,33.6177143 15.9255238,34.0944762 16.5114286,34.0944762 L19.2107619,34.0944762 C19.7964762,34.0944762 20.2732381,33.6177143 20.2732381,33.0319048 L20.2732381,31.411619 C20.2732381,31.2750476 20.3695238,31.1573333 20.5031429,31.1302857 C22.1620952,30.7934286 23.7237143,30.145619 25.1441905,29.2048571 C25.2581905,29.1295238 25.4092381,29.1448571 25.5057143,29.2413333 L26.6535238,30.3892381 C27.0678095,30.8035238 27.7419048,30.8035238 28.1562857,30.3892381 L30.0649524,28.4804762 C30.4792381,28.0661905 30.4792381,27.3919048 30.0649524,26.9777143 L28.9171429,25.8298095 C28.820381,25.7333333 28.8053333,25.582 28.8806667,25.4681905 C29.7562857,24.1460952 30.3780952,22.702381 30.7314286,21.1718095 L28.188,21.1718095 C26.8666667,25.7525714 22.6518095,28.9325714 17.8610476,28.9325714 C11.9349524,28.9325714 7.11380952,24.1113333 7.11380952,18.1852381 C7.11380952,12.2591429 11.9349524,7.438 17.8610476,7.438 C22.6518095,7.438 26.8664762,10.6179048 28.188,15.1986667 L30.7314286,15.1986667 C30.3780952,13.6680952 29.7562857,12.224381 28.8806667,10.9022857 C28.8053333,10.788381 28.820381,10.6372381 28.9171429,10.5407619 L30.0649524,9.39285714 C30.2657143,9.19219048 30.3761905,8.92533333 30.3761905,8.64152381 C30.3761905,8.35761905 30.2657143,8.0907619 30.0649524,7.89009524 L28.1562857,5.98142857 C27.955619,5.78066667 27.6886667,5.67019048 27.4048571,5.67019048 C27.1210476,5.67019048 26.8541905,5.78066667 26.6535238,5.98142857 L25.5057143,7.1292381 C25.4090476,7.22561905 25.258,7.24114286 25.1441905,7.16561905 C23.7235238,6.2247619 22.1620952,5.57704762 20.5031429,5.24028571 C20.3695238,5.21314286 20.2732381,5.09542857 20.2732381,4.95885714 L20.2732381,3.33857143 C20.2732381,2.75266667 19.7964762,2.27609524 19.2107619,2.27609524 L16.5114286,2.27609524 C15.9255238,2.27609524 15.4487619,2.75266667 15.4487619,3.33857143 L15.4487619,4.95885714 C15.4487619,5.09542857 15.3526667,5.21314286 15.2187619,5.24028571 C13.5600952,5.57704762 11.9986667,6.2247619 10.5780952,7.16561905 C10.4642857,7.24104762 10.3133333,7.22590476 10.2164762,7.1292381 L9.06857143,5.98142857 C8.65438095,5.56714286 7.98019048,5.56714286 7.56590476,5.98142857 L5.65714286,7.89009524 C5.45647619,8.0907619 5.346,8.35761905 5.346,8.64152381 C5.346,8.92533333 5.45647619,9.19219048 5.65714286,9.39285714 L6.80504762,10.5407619 C6.90161905,10.6372381 6.91685714,10.788381 6.84142857,10.9022857 C5.90047619,12.3230476 5.2527619,13.884381 4.91609524,15.5429524 C4.88885714,15.6767619 4.77114286,15.7729524 4.63457143,15.7729524 L3.01438095,15.7729524 C2.42847619,15.7729524 1.95190476,16.2497143 1.95190476,16.835619 L1.95190476,19.5350476 C1.95190476,20.1209524 2.42847619,20.5975238 3.01438095,20.5975238 L4.63457143,20.5975238 C4.77114286,20.5975238 4.88885714,20.6937143 4.91609524,20.8275238 C5.2527619,22.4860952 5.90047619,24.0474286 6.84142857,25.4681905 C6.91685714,25.582 6.90161905,25.7333333 6.80504762,25.8298095 L5.65714286,26.9777143 C5.24304762,27.3919048 5.24304762,28.0661905 5.65714286,28.4804762 L7.56590476,30.3892381 C7.98019048,30.8035238 8.65438095,30.8035238 9.06857143,30.3892381 L10.2164762,29.2413333 C10.2719048,29.1858095 10.3455238,29.1572381 10.419619,29.1572381 Z M19.2107619,34.6687619 L16.5114286,34.6687619 C15.6088571,34.6687619 14.8744762,33.9345714 14.8744762,33.0319048 L14.8744762,31.644381 C13.3045714,31.297619 11.8210476,30.6821905 10.4580952,29.8119048 L9.47466667,30.7953333 C8.83638095,31.4335238 7.79809524,31.4335238 7.15990476,30.7953333 L5.25114286,28.8865714 C4.61304762,28.2482857 4.61304762,27.2098095 5.25114286,26.571619 L6.23447619,25.5882857 C5.36419048,24.2252381 4.74857143,22.7414286 4.40190476,21.1718095 L3.01438095,21.1718095 C2.11180952,21.1718095 1.37761905,20.437619 1.37761905,19.5350476 L1.37761905,16.835619 C1.37761905,15.9330476 2.11180952,15.1986667 3.01438095,15.1986667 L4.40190476,15.1986667 C4.74857143,13.6290476 5.36419048,12.1453333 6.23447619,10.7822857 L5.25114286,9.79895238 C4.94190476,9.48980952 4.77171429,9.0787619 4.77171429,8.64152381 C4.77171429,8.20428571 4.94190476,7.79314286 5.25114286,7.48409524 L7.15990476,5.57533333 C7.46895238,5.26609524 7.88009524,5.09590476 8.3172381,5.09590476 C8.75438095,5.09590476 9.16552381,5.26609524 9.47466667,5.57533333 L10.4580952,6.55866667 C11.8211429,5.68838095 13.3046667,5.07285714 14.8744762,4.72619048 L14.8744762,3.33857143 C14.8744762,2.436 15.6088571,1.70180952 16.5114286,1.70180952 L19.2107619,1.70180952 C20.1131429,1.70180952 20.8475238,2.436 20.8475238,3.33857143 L20.8475238,4.72619048 C22.4175238,5.07285714 23.9011429,5.68838095 25.2640952,6.55866667 L26.2475238,5.57533333 C26.5565714,5.26609524 26.967619,5.09590476 27.4048571,5.09590476 C27.8421905,5.09590476 28.2532381,5.26609524 28.5622857,5.57533333 L30.4709524,7.48409524 C30.7801905,7.79314286 30.9504762,8.20428571 30.9504762,8.64152381 C30.9504762,9.0787619 30.7801905,9.48980952 30.4709524,9.79895238 L29.487619,10.7822857 C30.4002857,12.2117143 31.0329524,13.7738095 31.3688571,15.4286667 C31.3860952,15.5131429 31.364381,15.6008571 31.3098095,15.6675238 C31.2554286,15.7342857 31.1737143,15.7729524 31.0875238,15.7729524 L27.9697143,15.7729524 C27.8395238,15.7729524 27.7257143,15.6855238 27.6922857,15.5597143 C26.5084762,11.1159048 22.4658095,8.01228571 17.8610476,8.01228571 C12.251619,8.01228571 7.68809524,12.5758095 7.68809524,18.1852381 C7.68809524,23.7946667 12.251619,28.3582857 17.8610476,28.3582857 C22.4658095,28.3582857 26.5084762,25.2547619 27.6922857,20.8108571 C27.7257143,20.6850476 27.8395238,20.5975238 27.9697143,20.5975238 L31.0875238,20.5975238 C31.1737143,20.5975238 31.2554286,20.6361905 31.3098095,20.7029524 C31.364381,20.7697143 31.3860952,20.8573333 31.3688571,20.9418095 C31.0329524,22.5967619 30.4002857,24.1586667 29.487619,25.5882857 L30.4709524,26.571619 C31.1091429,27.2098095 31.1091429,28.2482857 30.4709524,28.8865714 L28.5622857,30.7953333 C27.924,31.4335238 26.8857143,31.4335238 26.2475238,30.7953333 L25.2640952,29.8119048 C23.9011429,30.6821905 22.4177143,31.297619 20.8475238,31.644381 L20.8475238,33.0319048 C20.8475238,33.9345714 20.1131429,34.6687619 19.2107619,34.6687619 L19.2107619,34.6687619 Z" id="Fill-15" fill="#0A0B09"></path>
            <path d="M17.8610476,7.72514286 C12.0840952,7.72514286 7.40095238,12.4082857 7.40095238,18.1852381 C7.40095238,23.9622857 12.0840952,28.6453333 17.8610476,28.6453333 C22.7045714,28.6453333 26.7793333,25.3533333 27.969619,20.8846667 L25.4966667,20.8846667 C25.4009524,21.1553333 25.292381,21.4198095 25.169619,21.676381 C24.371619,23.3439048 23.0198095,24.6958095 21.3520952,25.4939048 C21.095619,25.6166667 20.8311429,25.7251429 20.5604762,25.8207619 C19.7159048,26.1194286 18.8078095,26.2835238 17.8610476,26.2835238 C16.9142857,26.2835238 16.0061905,26.1194286 15.1617143,25.8207619 C14.8910476,25.7251429 14.6265714,25.6166667 14.37,25.4939048 C12.702381,24.6958095 11.3505714,23.3439048 10.5524762,21.676381 C10.4297143,21.4198095 10.3211429,21.1553333 10.2255238,20.8846667 C9.92695238,20.0400952 9.76285714,19.132 9.76285714,18.1852381 C9.76285714,17.2384762 9.92695238,16.330381 10.2255238,15.4859048 C10.3211429,15.2152381 10.4297143,14.9507619 10.5524762,14.6941905 C11.3505714,13.0264762 12.702381,11.6747619 14.37,10.8766667 C14.6265714,10.7539048 14.8910476,10.6454286 15.1617143,10.5497143 C16.0061905,10.2511429 16.9142857,10.0870476 17.8610476,10.0870476 C18.8078095,10.0870476 19.7159048,10.2511429 20.5604762,10.5497143 C20.8311429,10.6454286 21.095619,10.7539048 21.3520952,10.8766667 C23.0198095,11.6747619 24.371619,13.0264762 25.169619,14.6941905 C25.292381,14.9507619 25.4009524,15.2152381 25.4966667,15.4859048 L27.969619,15.4859048 C26.7793333,11.0172381 22.7045714,7.72514286 17.8610476,7.72514286" id="Fill-16" fill="#4A8E90"></path>
            <path d="M17.8610476,8.01228571 C12.251619,8.01228571 7.68809524,12.5758095 7.68809524,18.1852381 C7.68809524,23.7946667 12.251619,28.3582857 17.8610476,28.3582857 C22.3400952,28.3582857 26.2873333,25.4220952 27.5888571,21.1719048 L25.6972381,21.1718095 C25.6146667,21.3889524 25.5245714,21.599619 25.4284762,21.8002857 C24.6039048,23.5241905 23.2,24.9277143 21.4760952,25.7529524 C21.2179048,25.8764762 20.942,25.9902857 20.6560952,26.0915238 C18.8577143,26.7275238 16.8646667,26.7275238 15.0659048,26.0915238 C14.78,25.9902857 14.5040952,25.8764762 14.246,25.7527619 C12.5220952,24.9279048 11.1184762,23.5241905 10.2934286,21.8001905 C10.169619,21.5414286 10.0557143,21.2655238 9.9547619,20.980381 C9.63695238,20.0812381 9.47580952,19.1407619 9.47580952,18.1852381 C9.47580952,17.2297143 9.63695238,16.2892381 9.9547619,15.3900952 C10.0554286,15.1053333 10.1694286,14.8294286 10.2934286,14.5702857 C11.1184762,12.846381 12.5220952,11.4426667 14.2460952,10.617619 C14.5053333,10.493619 14.7811429,10.379619 15.0659048,10.2790476 C16.8641905,9.64314286 18.8580952,9.64314286 20.6560952,10.2790476 C20.9412381,10.3797143 21.2171429,10.4937143 21.4760952,10.617619 C23.2,11.4426667 24.6039048,12.8464762 25.4286667,14.5702857 C25.5247619,14.7711429 25.6146667,14.9817143 25.6972381,15.1986667 L27.5888571,15.1986667 C26.2873333,10.9484762 22.3400952,8.01228571 17.8610476,8.01228571 M17.8610476,28.9325714 C11.9349524,28.9325714 7.11380952,24.1113333 7.11380952,18.1852381 C7.11380952,12.2591429 11.9349524,7.438 17.8610476,7.438 C22.725619,7.438 26.9965714,10.7170476 28.2471429,15.4119048 C28.2700952,15.4980952 28.2517143,15.5900952 28.1973333,15.6607619 C28.1429524,15.731619 28.0587619,15.7729524 27.9697143,15.7729524 L25.4967619,15.7729524 C25.3749524,15.7729524 25.2665714,15.696381 25.226,15.5815238 C25.1321905,15.3161905 25.026,15.0594286 24.9105714,14.8181905 C24.1420952,13.2120952 22.8344762,11.9042857 21.2280952,11.1357143 C20.9875238,11.0204762 20.7306667,10.914381 20.4646667,10.820381 C18.79,10.2282857 16.932381,10.2282857 15.2573333,10.820381 C14.9917143,10.914381 14.7348571,11.020381 14.4939048,11.1357143 C12.8879048,11.9042857 11.5800952,13.2120952 10.8114286,14.8181905 C10.6962857,15.0590476 10.5901905,15.3159048 10.4961905,15.5815238 C10.2001905,16.4190476 10.0500952,17.2950476 10.0500952,18.1852381 C10.0500952,19.0755238 10.2001905,19.9514286 10.4961905,20.7889524 C10.590381,21.0548571 10.696381,21.3117143 10.8114286,21.552381 C11.5800952,23.1584762 12.8879048,24.4661905 14.4939048,25.2347619 C14.7338095,25.3497143 14.9906667,25.4557143 15.2573333,25.5500952 C16.9325714,26.142381 18.789619,26.142381 20.4646667,25.5500952 C20.7313333,25.4557143 20.9880952,25.3497143 21.2280952,25.2349524 C22.8344762,24.4661905 24.1420952,23.1582857 24.910381,21.552381 C25.0258095,21.3115238 25.132,21.0545714 25.226,20.7889524 C25.2665714,20.6741905 25.3749524,20.5975238 25.4967619,20.5975238 L27.9697143,20.5975238 C28.0587619,20.5975238 28.1429524,20.6389524 28.1973333,20.7097143 C28.2517143,20.7804762 28.2700952,20.8724762 28.2471429,20.9585714 C26.9965714,25.6534286 22.725619,28.9325714 17.8610476,28.9325714" id="Fill-17" fill="#0A0B09"></path>
            <path d="M11.4908571,17.8980952 L10.0553333,17.8980952 C10.081619,17.1740952 10.2078095,16.4613333 10.4313333,15.7729524 L11.8528571,15.7729524 C11.6421905,16.4479048 11.5167619,17.1601905 11.4908571,17.8980952" id="Fill-18" fill="#F7BF57"></path>
            <path d="M11.8528571,15.7729524 L10.4313333,15.7729524 C10.4520952,15.7089524 10.4737143,15.6451429 10.4961905,15.5815238 C10.5075238,15.5495238 10.5190476,15.517619 10.5307619,15.4859048 L11.948381,15.4859048 C11.9148571,15.5807619 11.8830476,15.6764762 11.8528571,15.7729524" id="Fill-19" fill="#0A0B09"></path>
            <path d="M11.8528571,20.5975238 L10.4313333,20.5975238 C10.2077143,19.9091429 10.081619,19.196381 10.0553333,18.4724762 L11.4908571,18.4724762 C11.5167619,19.2101905 11.6422857,19.9227619 11.8528571,20.5975238" id="Fill-20" fill="#DD9D37"></path>
            <path d="M11.9548571,20.8846667 L10.5324017,20.8846667 C10.5206475,20.8529524 10.5090844,20.8209524 10.4977124,20.7889524 C10.4751595,20.7253333 10.4534667,20.6615238 10.432634,20.5975238 L11.8590074,20.5975238 C11.8893009,20.694 11.921219,20.7897143 11.9548571,20.8846667 M11.4957724,18.4724762 L10.0553512,18.4724762 C10.0518154,18.3768571 10.0500952,18.2811429 10.0500952,18.1852381 C10.0500952,18.0893333 10.0518154,17.993619 10.0553512,17.8980952 L11.4957724,17.8980952 C11.4924277,17.9934286 11.4907076,18.0891429 11.4907076,18.1852381 C11.4907076,18.2814286 11.4924277,18.3771429 11.4957724,18.4724762" id="Fill-21" fill="#0A0B09"></path>
            <path d="M10.5307619,20.8846667 L10.1001905,20.8846667 L9.76295238,18.1852381 L10.1001905,15.4859048 L10.5307619,15.4859048 C10.5190476,15.517619 10.5075238,15.5495238 10.4961905,15.5815238 C10.4737143,15.6451429 10.4520952,15.7089524 10.4313333,15.7729524 C10.2078095,16.4613333 10.081619,17.1740952 10.0553333,17.8980952 C10.0518095,17.993619 10.0500952,18.0893333 10.0500952,18.1852381 C10.0500952,18.2811429 10.0518095,18.3768571 10.0553333,18.4724762 C10.081619,19.196381 10.2077143,19.9091429 10.4313333,20.5975238 C10.4520952,20.6615238 10.4737143,20.7253333 10.4961905,20.7889524 C10.5075238,20.8209524 10.5190476,20.8529524 10.5307619,20.8846667" id="Fill-22" fill="#0A0B09"></path>
        </g>
    </g>
</svg>