<?xml version="1.0" encoding="UTF-8"?>
<svg viewBox="0 0 40 40" version="1.1" xmlns="http://www.w3.org/2000/svg" xmlns:xlink="http://www.w3.org/1999/xlink">
    <title>Diseño_40x40</title>
    <g id="Diseño_40x40" stroke="none" stroke-width="1" fill="none" fill-rule="evenodd">
        <g id="shutterstock_1272571831" transform="translate(-1.000000, 0.000000)">
            <g id="Group-44" transform="translate(1.958696, 0.691304)">
                <path d="M1.17418043,4.78728261 L1.17418043,28.7121739 L24.3741239,28.7121739 L24.3741239,22.9122457 C24.3741239,22.1114848 25.0233739,21.4622348 25.8241348,21.4622348 C26.6250109,21.4622348 27.2741457,22.1114848 27.2741457,22.9122457 L27.2741457,27.9872261 C27.2741457,27.18635 27.9232804,26.5372152 28.7241565,26.5372152 C29.5250326,26.5372152 30.1741674,27.18635 30.1741674,27.9872261 C30.1741674,27.18635 30.8233022,26.5372152 31.6241783,26.5372152 C32.4249391,26.5372152 33.0741891,27.18635 33.0741891,27.9872261 C33.0741891,27.18635 33.7233239,26.5372152 34.5240848,26.5372152 C35.3249609,26.5372152 35.9742109,27.18635 35.9742109,27.9872261 L35.9742109,4.78728261 L1.17418043,4.78728261" id="Fill-28" fill="#E8F5F4"></path>
                <path d="M1.52156087,28.3649087 L24.0267435,28.3649087 L24.0267435,22.9122457 C24.0267435,21.9211457 24.8330348,21.1148543 25.8241348,21.1148543 C26.8151196,21.1148543 27.6214109,21.9211457 27.6214109,22.9122457 L27.6214109,26.5687848 C27.9260457,26.331437 28.308913,26.18995 28.7242717,26.18995 C29.3187935,26.18995 29.84695,26.4800674 30.1741674,26.9263043 C30.5015,26.4800674 31.0295413,26.18995 31.6241783,26.18995 C32.2187,26.18995 32.7468565,26.4800674 33.0740739,26.9263043 C33.4015217,26.4800674 33.929563,26.18995 34.5242,26.18995 C34.9394435,26.18995 35.3220804,26.331437 35.6268304,26.5687848 L35.6268304,5.13466304 L1.52156087,5.13466304 L1.52156087,28.3649087 M24.3742391,29.0597848 L1.17418043,29.0597848 C0.982228261,29.0597848 0.8268,28.9041261 0.8268,28.7122891 L0.8268,4.78728261 C0.8268,4.59533043 0.982228261,4.43990217 1.17418043,4.43990217 L35.9742109,4.43990217 C36.1659326,4.43990217 36.3214761,4.59533043 36.3214761,4.78728261 L36.3214761,27.9872261 C36.3214761,28.179063 36.1659326,28.3346065 35.9742109,28.3346065 C35.7824891,28.3346065 35.6268304,28.179063 35.6268304,27.9872261 C35.6268304,27.3793391 35.1322022,26.8847109 34.5242,26.8847109 C33.9160826,26.8847109 33.4214543,27.3793391 33.4214543,27.9872261 C33.4214543,28.179063 33.2659109,28.3346065 33.0740739,28.3346065 C32.8823522,28.3346065 32.7266935,28.179063 32.7266935,27.9872261 C32.7266935,27.3793391 32.2320652,26.8847109 31.6241783,26.8847109 C31.0161761,26.8847109 30.5215478,27.3793391 30.5215478,27.9872261 C30.5215478,28.179063 30.3660043,28.3346065 30.1741674,28.3346065 C29.9824457,28.3346065 29.826787,28.179063 29.826787,27.9872261 C29.826787,27.3793391 29.3321587,26.8847109 28.7242717,26.8847109 C28.1160391,26.8847109 27.6214109,27.3793391 27.6214109,27.9872261 C27.6214109,28.179063 27.4658674,28.3346065 27.2740304,28.3346065 C27.0823087,28.3346065 26.92665,28.179063 26.92665,27.9872261 L26.92665,22.9122457 C26.92665,22.3042435 26.4320217,21.8096152 25.8241348,21.8096152 C25.2161326,21.8096152 24.7216196,22.3042435 24.7216196,22.9122457 L24.7216196,28.7122891 C24.7216196,28.9041261 24.5659609,29.0597848 24.3742391,29.0597848" id="Fill-30" fill="#0A0B09"></path>
                <path d="M33.799137,1.16231304 L3.34913913,1.16231304 C2.14799783,1.16231304 1.17418043,2.13613043 1.17418043,3.33727174 L1.17418043,4.78728261 L35.9742109,4.78728261 L35.9742109,3.33727174 C35.9742109,2.13613043 35.0002783,1.16231304 33.799137,1.16231304" id="Fill-31" fill="#6DC3C6"></path>
                <path d="M1.52156087,4.43990217 L35.6268304,4.43990217 L35.6268304,3.33727174 C35.6268304,2.32958043 34.8069435,1.50969348 33.799137,1.50969348 L3.34925435,1.50969348 C2.34144783,1.50969348 1.52156087,2.32958043 1.52156087,3.33727174 L1.52156087,4.43990217 M35.9742109,5.13466304 L1.17418043,5.13466304 C0.982228261,5.13466304 0.8268,4.97911957 0.8268,4.78728261 L0.8268,3.33727174 C0.8268,1.94648261 1.95835,0.814932609 3.34925435,0.814932609 L33.799137,0.814932609 C35.1900413,0.814932609 36.3214761,1.94648261 36.3214761,3.33727174 L36.3214761,4.78728261 C36.3214761,4.97911957 36.1659326,5.13466304 35.9742109,5.13466304" id="Fill-32" fill="#0A0B09"></path>
                <path d="M8.42423478,8.03468478 L4.07420217,8.03468478 C3.88225,8.03468478 3.72682174,7.8791413 3.72682174,7.68730435 C3.72682174,7.49535217 3.88225,7.33992391 4.07420217,7.33992391 L8.42423478,7.33992391 C8.61618696,7.33992391 8.77161522,7.49535217 8.77161522,7.68730435 C8.77161522,7.8791413 8.61618696,8.03468478 8.42423478,8.03468478" id="Fill-33" fill="#0A0B09"></path>
                <path d="M8.42423478,9.84716957 L4.07420217,9.84716957 C3.88225,9.84716957 3.72682174,9.69162609 3.72682174,9.49978913 C3.72682174,9.30783696 3.88225,9.1524087 4.07420217,9.1524087 L8.42423478,9.1524087 C8.61618696,9.1524087 8.77161522,9.30783696 8.77161522,9.49978913 C8.77161522,9.69162609 8.61618696,9.84716957 8.42423478,9.84716957" id="Fill-34" fill="#0A0B09"></path>
                <path d="M8.42423478,11.6596543 L4.07420217,11.6596543 C3.88225,11.6596543 3.72682174,11.5041109 3.72682174,11.3122739 C3.72682174,11.1203217 3.88225,10.9648935 4.07420217,10.9648935 L8.42423478,10.9648935 C8.61618696,10.9648935 8.77161522,11.1203217 8.77161522,11.3122739 C8.77161522,11.5041109 8.61618696,11.6596543 8.42423478,11.6596543" id="Fill-35" fill="#0A0B09"></path>
                <polygon id="Fill-36" fill="#D794AA" points="12.7741522 15.6623065 18.5741957 15.6623065 18.5741957 9.86226304 12.7741522 9.86226304"></polygon>
                <path d="M13.1215326,15.3149261 L18.2268152,15.3149261 L18.2268152,10.2096435 L13.1215326,10.2096435 L13.1215326,15.3149261 Z M18.5741957,16.009687 L12.7741522,16.009687 C12.5823152,16.009687 12.4267717,15.8542587 12.4267717,15.6623065 L12.4267717,9.86226304 C12.4267717,9.67042609 12.5823152,9.51488261 12.7741522,9.51488261 L18.5741957,9.51488261 C18.7660326,9.51488261 18.9215761,9.67042609 18.9215761,9.86226304 L18.9215761,15.6623065 C18.9215761,15.8542587 18.7660326,16.009687 18.5741957,16.009687 L18.5741957,16.009687 Z" id="Fill-37" fill="#0A0B09"></path>
                <polygon id="Fill-38" fill="#FAD67C" points="18.5741957 15.6623065 24.3741239 15.6623065 24.3741239 9.86226304 18.5741957 9.86226304"></polygon>
                <path d="M18.9215761,15.3149261 L24.0267435,15.3149261 L24.0267435,10.2096435 L18.9215761,10.2096435 L18.9215761,15.3149261 Z M24.3742391,16.009687 L18.5741957,16.009687 C18.3822435,16.009687 18.2268152,15.8542587 18.2268152,15.6623065 L18.2268152,9.86226304 C18.2268152,9.67042609 18.3822435,9.51488261 18.5741957,9.51488261 L24.3742391,9.51488261 C24.5659609,9.51488261 24.7215043,9.67042609 24.7215043,9.86226304 L24.7215043,15.6623065 C24.7215043,15.8542587 24.5659609,16.009687 24.3742391,16.009687 L24.3742391,16.009687 Z" id="Fill-39" fill="#0A0B09"></path>
                <polygon id="Fill-40" fill="#FAD67C" points="12.7741522 21.4622348 18.5741957 21.4622348 18.5741957 15.6623065 12.7741522 15.6623065"></polygon>
                <path d="M13.1215326,21.1148543 L18.2268152,21.1148543 L18.2268152,16.009687 L13.1215326,16.009687 L13.1215326,21.1148543 Z M18.5741957,21.8097304 L12.7741522,21.8097304 C12.5823152,21.8097304 12.4267717,21.654187 12.4267717,21.4622348 L12.4267717,15.6623065 C12.4267717,15.4703543 12.5823152,15.3149261 12.7741522,15.3149261 L18.5741957,15.3149261 C18.7660326,15.3149261 18.9215761,15.4703543 18.9215761,15.6623065 L18.9215761,21.4622348 C18.9215761,21.654187 18.7660326,21.8097304 18.5741957,21.8097304 L18.5741957,21.8097304 Z" id="Fill-41" fill="#0A0B09"></path>
                <path d="M33.799137,48.1507304 L33.799137,35.9622348 C35.0002783,35.9622348 35.9742109,34.9884109 35.9742109,33.7871543 L35.9742109,27.9872261 C35.9742109,27.18635 35.3249609,26.5372152 34.5240848,26.5372152 C33.7233239,26.5372152 33.0741891,27.18635 33.0741891,27.9872261 C33.0741891,27.18635 32.4249391,26.5372152 31.6241783,26.5372152 C30.8233022,26.5372152 30.1741674,27.18635 30.1741674,27.9872261 C30.1741674,27.18635 29.5250326,26.5372152 28.7241565,26.5372152 C27.9232804,26.5372152 27.2741457,27.18635 27.2741457,27.9872261 L27.2741457,22.9122457 C27.2741457,22.1114848 26.6250109,21.4622348 25.8241348,21.4622348 C25.0233739,21.4622348 24.3741239,22.1114848 24.3741239,22.9122457 L24.3741239,33.7871543 C24.3741239,34.9884109 25.3479413,35.9622348 26.5491978,35.9622348 L26.5491978,48.1507304 L33.799137,48.1507304" id="Fill-42" fill="#FEE9D7"></path>
                <path d="M26.8965783,47.80335 L33.4517565,47.80335 L33.4517565,35.9622283 C33.4517565,35.7705065 33.6074152,35.6148478 33.799137,35.6148478 C34.8069435,35.6148478 35.6268304,34.7950761 35.6268304,33.7872696 L35.6268304,27.9872261 C35.6268304,27.3793391 35.1322022,26.8847109 34.5242,26.8847109 C33.9160826,26.8847109 33.4214543,27.3793391 33.4214543,27.9872261 C33.4214543,28.179063 33.2659109,28.3346065 33.0740739,28.3346065 C32.8823522,28.3346065 32.7266935,28.179063 32.7266935,27.9872261 C32.7266935,27.3793391 32.2320652,26.8847109 31.6241783,26.8847109 C31.0161761,26.8847109 30.5215478,27.3793391 30.5215478,27.9872261 C30.5215478,28.179063 30.3660043,28.3346065 30.1741674,28.3346065 C29.9824457,28.3346065 29.826787,28.179063 29.826787,27.9872261 C29.826787,27.3793391 29.3321587,26.8847109 28.7242717,26.8847109 C28.1160391,26.8847109 27.6214109,27.3793391 27.6214109,27.9872261 C27.6214109,28.179063 27.4658674,28.3346065 27.2740304,28.3346065 C27.0823087,28.3346065 26.92665,28.179063 26.92665,27.9872261 L26.92665,22.9122457 C26.92665,22.3042435 26.4320217,21.8096152 25.8241348,21.8096152 C25.2161326,21.8096152 24.7216196,22.3042435 24.7216196,22.9122457 L24.7216196,33.7872696 C24.7216196,34.7950761 25.5413913,35.6148478 26.5491978,35.6148478 C26.7410348,35.6148478 26.8965783,35.7705065 26.8965783,35.9622283 L26.8965783,47.80335 M33.799137,48.4981109 L26.5491978,48.4981109 C26.3574761,48.4981109 26.2018174,48.3425674 26.2018174,48.1507304 L26.2018174,36.2858739 C24.974637,36.1160435 24.0267435,35.0603065 24.0267435,33.7872696 L24.0267435,22.9122457 C24.0267435,21.9211457 24.8330348,21.1148543 25.8241348,21.1148543 C26.8151196,21.1148543 27.6214109,21.9211457 27.6214109,22.9122457 L27.6214109,26.5687848 C27.9260457,26.331437 28.308913,26.18995 28.7242717,26.18995 C29.3187935,26.18995 29.84695,26.4800674 30.1741674,26.9263043 C30.5015,26.4800674 31.0295413,26.18995 31.6241783,26.18995 C32.2187,26.18995 32.7468565,26.4800674 33.0740739,26.9263043 C33.4015217,26.4800674 33.929563,26.18995 34.5242,26.18995 C35.5153,26.18995 36.3214761,26.9962413 36.3214761,27.9872261 L36.3214761,33.7872696 C36.3214761,35.0603065 35.3735826,36.1160435 34.1465174,36.2858739 L34.1465174,48.1507304 C34.1465174,48.3425674 33.9909739,48.4981109 33.799137,48.4981109" id="Fill-43" fill="#0A0B09"></path>
            </g>
            <g id="Group-47" transform="translate(35.141304, 5.760870)" fill="#CFEAE9">
                <polygon id="Fill-45" points="0.0123282609 21.7089152 2.44422174 21.7089152 2.44422174 0.0650978261 0.0123282609 0.0650978261"></polygon>
            </g>
            <g id="Group-61" transform="translate(4.263043, 0.691304)">
                <path d="M33.669863,26.9263043 C33.5600609,26.776637 33.4275609,26.6444826 33.277663,26.5349109 C33.2927565,26.5459717 33.3077348,26.557263 33.3224826,26.5687848 L33.3224826,5.13466304 L33.669863,5.13466304 L33.669863,26.9263043 M30.8905891,26.7784804 L30.8905891,26.7784804 C31.2197652,26.4170435 31.6937696,26.18995 32.2198522,26.18995 C32.2216957,26.18995 32.2235391,26.18995 32.2253826,26.18995 C32.2235391,26.18995 32.2216957,26.18995 32.2198522,26.18995 C31.6937696,26.18995 31.2197652,26.4170435 30.8905891,26.7784804" id="Fill-48" fill="#0A0B09"></path>
                <path d="M33.3224826,4.43990217 L30.8905891,4.43990217 L30.8905891,3.33727174 C30.8905891,2.57084565 30.4942413,1.89705435 29.8953413,1.50969348 L31.4947891,1.50969348 C32.5025957,1.50969348 33.3224826,2.32958043 33.3224826,3.33727174 L33.3224826,4.43990217" id="Fill-50" fill="#62C0C3"></path>
                <path d="M33.669863,5.13466304 L30.8905891,5.13466304 L30.8905891,4.43990217 L33.3224826,4.43990217 L33.3224826,3.33727174 C33.3224826,2.32958043 32.5025957,1.50969348 31.4947891,1.50969348 L29.8953413,1.50969348 C29.5555652,1.2898587 29.1505761,1.16231304 28.7156304,1.16231304 L31.4947891,1.16231304 C32.6959304,1.16231304 33.669863,2.13601522 33.669863,3.33727174 L33.669863,5.13466304" id="Fill-51" fill="#0A0B09"></path>
                <path d="M33.669863,27.2709196 C33.6654848,27.2659652 33.6612217,27.2608957 33.6568435,27.2559413 C33.2913739,26.8343609 32.7811913,26.538137 32.2620217,26.5379065 C32.2617913,26.5379065 32.2615609,26.5379065 32.2612152,26.5379065 C32.2611,26.5379065 32.2608696,26.5379065 32.2607543,26.5379065 C31.9887261,26.5380217 31.7143935,26.6193652 31.4572283,26.8067087 C31.4533109,26.8094739 31.4493935,26.8123543 31.4455913,26.8152348 C31.4453609,26.81535 31.4451304,26.8155804 31.4449,26.8156957 C31.4429413,26.8170783 31.4410978,26.8185761 31.4391391,26.8199587 C31.2507587,26.9142065 31.0634152,27.0486652 30.8905891,27.2193022 L30.8905891,26.7784804 C31.2197652,26.4170435 31.6937696,26.18995 32.2198522,26.18995 C32.2216957,26.18995 32.2235391,26.18995 32.2253826,26.18995 C32.2258435,26.18995 32.2263043,26.18995 32.2268804,26.18995 C32.2281478,26.18995 32.2294152,26.18995 32.2306826,26.18995 C32.2313739,26.18995 32.2320652,26.18995 32.2326413,26.18995 C32.2339087,26.18995 32.2349457,26.18995 32.236213,26.18995 C32.2367891,26.18995 32.2375957,26.18995 32.2381717,26.18995 C32.2394391,26.1900652 32.2405913,26.1900652 32.2417435,26.1900652 C32.2423196,26.1900652 32.2430109,26.1900652 32.243587,26.1900652 C32.2449696,26.1900652 32.2464674,26.1900652 32.24785,26.1900652 C32.2483109,26.1901804 32.2486565,26.1901804 32.2490022,26.1901804 C32.2507304,26.1901804 32.2525739,26.1901804 32.2543022,26.1901804 C32.2548783,26.1902957 32.2555696,26.1902957 32.2561457,26.1902957 C32.2572978,26.1902957 32.25845,26.1902957 32.2596022,26.1902957 C32.2602935,26.1904109 32.2611,26.1904109 32.2617913,26.1904109 C32.2629435,26.1904109 32.2639804,26.1904109 32.2651326,26.1904109 C32.2657087,26.1905261 32.2665152,26.1905261 32.2672065,26.1905261 C32.2683587,26.1905261 32.2693957,26.1905261 32.2705478,26.1906413 C32.2712391,26.1906413 32.2719304,26.1906413 32.2726217,26.1906413 C32.2738891,26.1907565 32.2750413,26.1907565 32.2763087,26.1907565 C32.2768848,26.1907565 32.2774609,26.1907565 32.278037,26.1908717 C32.2797652,26.1908717 32.2813783,26.190987 32.2831065,26.190987 C32.2837978,26.190987 32.2846043,26.1911022 32.2852957,26.1911022 C32.2863326,26.1911022 32.2873696,26.1911022 32.2884065,26.1912174 C32.2893283,26.1912174 32.2900196,26.1912174 32.2908261,26.1913326 C32.291863,26.1913326 32.2927848,26.1913326 32.2937065,26.1914478 C32.294513,26.1914478 32.29555,26.1914478 32.2963565,26.191563 C32.2972783,26.191563 32.2980848,26.191563 32.2990065,26.1916783 C32.2999283,26.1916783 32.3007348,26.1916783 32.3016565,26.1917935 C32.3025783,26.1917935 32.3036152,26.1917935 32.304537,26.1919087 C32.3053435,26.1919087 32.30615,26.1919087 32.3069565,26.1920239 C32.3085696,26.1920239 32.3101826,26.1921391 32.3119109,26.1922543 C32.3127174,26.1922543 32.3135239,26.1923696 32.3143304,26.1923696 C32.3152522,26.1923696 32.3161739,26.1924848 32.3170957,26.1924848 C32.3180174,26.1926 32.3189391,26.1926 32.3198609,26.1926 C32.3207826,26.1927152 32.3214739,26.1927152 32.3223957,26.1928304 C32.3233174,26.1928304 32.3242391,26.1929457 32.3251609,26.1929457 C32.3259674,26.1929457 32.3267739,26.1930609 32.3275804,26.1930609 C32.3285022,26.1931761 32.3295391,26.1931761 32.3304609,26.1932913 C32.3312674,26.1932913 32.3319587,26.1934065 32.3327652,26.1934065 C32.3338022,26.1935217 32.3348391,26.1935217 32.3357609,26.193637 C32.3359913,26.193637 32.3359913,26.193637 32.3362217,26.193637 C32.3387565,26.1937522 32.3414065,26.1939826 32.3439413,26.1940978 C32.3445174,26.194213 32.3449783,26.194213 32.3456696,26.194213 C32.3467065,26.1943283 32.3478587,26.1944435 32.3488957,26.1944435 C32.349587,26.1945587 32.350163,26.1945587 32.3507391,26.1946739 C32.3518913,26.1946739 32.3530435,26.1947891 32.3540804,26.1949043 C32.3546565,26.1949043 32.3553478,26.1949043 32.3559239,26.1950196 C32.3570761,26.1951348 32.358113,26.1951348 32.3592652,26.19525 C32.3598413,26.19525 32.3603022,26.1953652 32.360763,26.1953652 C32.3665239,26.1958261 32.3724,26.196287 32.3781609,26.196863 C32.3785065,26.196863 32.378737,26.196863 32.3790826,26.196863 C32.38035,26.1969783 32.3817326,26.1970935 32.383,26.1972087 C32.3833457,26.1973239 32.3836913,26.1973239 32.384037,26.1973239 C32.3853043,26.1974391 32.3868022,26.1975543 32.3880696,26.1976696 C32.3883,26.1977848 32.3885304,26.1977848 32.3887609,26.1977848 C32.3949826,26.1983609 32.4010891,26.198937 32.4071957,26.1996283 C32.4088087,26.1997435 32.4104217,26.1999739 32.4119196,26.2000891 C32.4120348,26.2000891 32.4119196,26.2000891 32.4120348,26.2000891 C32.7302652,26.2340783 33.0238391,26.3513696 33.2706348,26.5298413 C33.2710957,26.530187 33.2716717,26.5305326 33.2721326,26.5309935 C33.2727087,26.5313391 33.2732848,26.5318 33.2739761,26.5322609 C33.2748978,26.5329522 33.2757043,26.5335283 33.2766261,26.5342196 C33.2769717,26.53445 33.2773174,26.5346804 33.277663,26.5349109 C33.4275609,26.6444826 33.5600609,26.776637 33.669863,26.9263043 L33.669863,27.2709196" id="Fill-52" fill="#0A0B09"></path>
                <path d="M28.7156304,41.3144217 L28.7156304,35.9622283 C29.916887,35.9622283 30.8905891,34.9884109 30.8905891,33.7872696 L30.8905891,28.3129457 C31.0228587,28.263863 31.1171065,28.1365478 31.1171065,27.9872261 C31.1171065,27.3793391 31.6117348,26.8847109 32.2198522,26.8847109 C32.8278543,26.8847109 33.3224826,27.3793391 33.3224826,27.9872261 L33.3224826,33.7872696 C33.3224826,34.7950761 32.5025957,35.6148478 31.4947891,35.6148478 C31.3030674,35.6148478 31.1474087,35.7705065 31.1474087,35.9622283 L31.1474087,39.8088761 C30.3677326,40.3539696 29.5557957,40.8571239 28.7156304,41.3144217" id="Fill-53" fill="#F8D5B9"></path>
                <path d="M31.1474087,39.8088761 L31.1474087,35.9622283 C31.1474087,35.7705065 31.3030674,35.6148478 31.4947891,35.6148478 C32.5025957,35.6148478 33.3224826,34.7950761 33.3224826,33.7872696 L33.3224826,27.9872261 C33.3224826,27.3793391 32.8278543,26.8847109 32.2198522,26.8847109 C31.6117348,26.8847109 31.1171065,27.3793391 31.1171065,27.9872261 C31.1171065,28.1365478 31.0228587,28.263863 30.8905891,28.3129457 L30.8905891,27.2193022 C31.0634152,27.0486652 31.2507587,26.9142065 31.4391391,26.8199587 C31.4410978,26.8185761 31.4429413,26.8170783 31.4449,26.8156957 C31.4451304,26.8155804 31.4453609,26.81535 31.4455913,26.8152348 C31.4493935,26.8123543 31.4533109,26.8094739 31.4572283,26.8067087 C31.7142783,26.6194804 31.9888413,26.5379065 32.2607543,26.5379065 C32.2608696,26.5379065 32.2611,26.5379065 32.2612152,26.5379065 C32.2615609,26.5379065 32.2617913,26.5379065 32.2620217,26.5379065 C32.7811913,26.538137 33.2914891,26.8343609 33.6568435,27.2559413 C33.6612217,27.2608957 33.6654848,27.2659652 33.669863,27.2709196 L33.669863,33.7872696 C33.669863,34.9884109 32.6959304,35.9622283 31.4947891,35.9622283 L31.4947891,39.5617348 C31.3795717,39.645037 31.2640087,39.7273022 31.1474087,39.8088761" id="Fill-54" fill="#0A0B09"></path>
                <path d="M31.4577433,27.4005579 C31.7256516,26.7993272 32.0114445,26.5382763 32.2948368,26.5379065 C32.0115646,26.5382763 31.7255316,26.799697 31.4577433,27.4005579" id="Fill-55" fill="#0A0B09"></path>
                <path d="M22.0697761,22.9122457 C22.0697761,22.1114848 22.7190261,21.4622348 23.519787,21.4622348 C24.320663,21.4622348 24.9697978,22.1114848 24.9697978,22.9122457 L24.9697978,18.562213 L19.1698696,18.562213 L19.1698696,24.3622565 L22.0697761,24.3622565 L22.0697761,22.9122457" id="Fill-56" fill="#D794AA"></path>
                <path d="M19.5171348,24.0148761 L21.7223957,24.0148761 L21.7223957,22.9122457 C21.7223957,21.9211457 22.528687,21.1148543 23.519787,21.1148543 C23.9349152,21.1148543 24.3176674,21.2563413 24.6223022,21.4936891 L24.6223022,18.9097087 L19.5171348,18.9097087 L19.5171348,24.0148761 Z M22.0698913,24.709637 L19.1697543,24.709637 C18.9779174,24.709637 18.8222587,24.5542087 18.8222587,24.3622565 L18.8222587,18.562213 C18.8222587,18.3703761 18.9779174,18.2148326 19.1697543,18.2148326 L24.9696826,18.2148326 C25.1615196,18.2148326 25.317063,18.3703761 25.317063,18.562213 L25.317063,22.9122457 C25.317063,23.1040826 25.1615196,23.2596261 24.9696826,23.2596261 C24.7779609,23.2596261 24.6223022,23.1040826 24.6223022,22.9122457 C24.6223022,22.3042435 24.1276739,21.8097304 23.519787,21.8097304 C22.9117848,21.8097304 22.4171565,22.3042435 22.4171565,22.9122457 L22.4171565,24.3622565 C22.4171565,24.5542087 22.261613,24.709637 22.0698913,24.709637 L22.0698913,24.709637 Z" id="Fill-57" fill="#0A0B09"></path>
                <path d="M2.49480217,3.32217826 L1.76985435,3.32217826 C1.57790217,3.32217826 1.42247391,3.16663478 1.42247391,2.97479783 C1.42247391,2.78284565 1.57790217,2.62741739 1.76985435,2.62741739 L2.49480217,2.62741739 C2.68663913,2.62741739 2.84218261,2.78284565 2.84218261,2.97479783 C2.84218261,3.16663478 2.68663913,3.32217826 2.49480217,3.32217826" id="Fill-58" fill="#0A0B09"></path>
                <path d="M5.39482391,3.32217826 L4.66987609,3.32217826 C4.47792391,3.32217826 4.32249565,3.16663478 4.32249565,2.97479783 C4.32249565,2.78284565 4.47792391,2.62741739 4.66987609,2.62741739 L5.39482391,2.62741739 C5.58666087,2.62741739 5.74220435,2.78284565 5.74220435,2.97479783 C5.74220435,3.16663478 5.58666087,3.32217826 5.39482391,3.32217826" id="Fill-59" fill="#0A0B09"></path>
                <path d="M8.29484565,3.32217826 L7.56978261,3.32217826 C7.37794565,3.32217826 7.22251739,3.16663478 7.22251739,2.97479783 C7.22251739,2.78284565 7.37794565,2.62741739 7.56978261,2.62741739 L8.29484565,2.62741739 C8.48668261,2.62741739 8.64222609,2.78284565 8.64222609,2.97479783 C8.64222609,3.16663478 8.48668261,3.32217826 8.29484565,3.32217826" id="Fill-60" fill="#0A0B09"></path>
            </g>
        </g>
    </g>
</svg>