<?xml version="1.0" encoding="UTF-8"?>
<svg viewBox="0 0 40 40" version="1.1" xmlns="http://www.w3.org/2000/svg" xmlns:xlink="http://www.w3.org/1999/xlink">
    <title>Evaluacion_40x40</title>
    <g id="Evaluacion_40x40" stroke="none" stroke-width="1" fill="none" fill-rule="evenodd">
        <g id="shutterstock_1265400559" transform="translate(3.000000, 0.000000)">
            <path d="M33.6914286,39.0977143 L28.8446667,39.0977143 C28.4622857,39.0977143 28.152381,38.7877143 28.152381,38.4053333 L28.152381,28.7119048 C28.152381,28.3295238 28.4622857,28.0195238 28.8446667,28.0195238 L33.6914286,28.0195238 L33.6914286,39.0977143" id="Fill-19" fill="#E77E70"></path>
            <path d="M28.152381,36.4909524 L28.152381,38.4053333 C28.152381,38.7877143 28.4622857,39.0977143 28.8446667,39.0977143 L33.6914286,39.0977143 L33.6914286,37.1834286 L28.8446667,37.1834286 C28.4622857,37.1834286 28.152381,36.8734286 28.152381,36.4909524" id="Fill-20" fill="#D57264"></path>
            <path d="M22.6131429,30.0966667 C22.6131429,28.9495238 21.6832381,28.0195238 20.536,28.0195238 L20.1898095,28.0195238 C19.4250476,28.0195238 18.8050476,27.3994286 18.8050476,26.6346667 L18.8050476,22.2085714 C18.8050476,21.3044762 18.1440952,20.4971429 17.2440952,20.4113333 C16.2117143,20.3128571 15.3430476,21.122 15.3430476,22.1341905 L15.3430476,27.3271429 C15.3430476,27.7094286 15.0331429,28.0195238 14.6506667,28.0195238 L4.67057143,28.0195238 C3.94733333,28.0195238 3.30152381,28.5482857 3.2327619,29.2681905 C3.154,30.0940952 3.80133333,30.7890476 4.61104762,30.7890476 L1.84142857,30.7890476 C1.07666667,30.7890476 0.456666667,31.4090476 0.456666667,32.1738095 C0.456666667,32.9385714 1.07666667,33.5585714 1.84142857,33.5585714 L4.61104762,33.5585714 C3.84619048,33.5585714 3.22619048,34.1785714 3.22619048,34.9433333 C3.22619048,35.7080952 3.84619048,36.3280952 4.61104762,36.3280952 L7.38057143,36.3280952 C6.61580952,36.3280952 5.99580952,36.9481905 5.99580952,37.7129524 C5.99580952,38.4777143 6.61580952,39.0977143 7.38057143,39.0977143 L20.536,39.0977143 C21.6832381,39.0977143 22.6131429,38.1678095 22.6131429,37.0205714 L28.152381,37.0205714 L28.152381,30.0966667 L22.6131429,30.0966667" id="Fill-21" fill="#FEE9D7"></path>
            <path d="M7.38066667,36.6152381 C6.77542857,36.6152381 6.28295238,37.1077143 6.28295238,37.7129524 C6.28295238,38.3181905 6.77542857,38.8105714 7.38066667,38.8105714 L20.5360952,38.8105714 C21.5231429,38.8105714 22.3260952,38.007619 22.3260952,37.0205714 C22.3260952,36.8620952 22.4546667,36.7334286 22.6131429,36.7334286 L27.8651429,36.7334286 L27.8651429,30.3837143 L22.6131429,30.3837143 C22.4546667,30.3837143 22.3260952,30.2551429 22.3260952,30.0966667 C22.3260952,29.1095238 21.5231429,28.3066667 20.5360952,28.3066667 L20.1898095,28.3066667 C19.268,28.3066667 18.5179048,27.5565714 18.5179048,26.6347619 L18.5179048,22.2085714 C18.5179048,21.4307619 17.9464762,20.7667619 17.2168571,20.6971429 C16.8033333,20.6581905 16.4078095,20.7885714 16.1030476,21.0655238 C15.8025714,21.3388571 15.6301905,21.7282857 15.6301905,22.1341905 L15.6301905,27.3271429 C15.6301905,27.8672381 15.1907619,28.3066667 14.6507619,28.3066667 L4.67057143,28.3066667 C4.07752381,28.3066667 3.57152381,28.7410476 3.51857143,29.295619 C3.48857143,29.61 3.588,29.9108571 3.79857143,30.142381 C4.00628571,30.3708571 4.30247619,30.502 4.61104762,30.502 C4.76961905,30.502 4.89819048,30.6304762 4.89819048,30.7890476 C4.89819048,30.947619 4.76961905,31.0761905 4.61104762,31.0761905 L1.84152381,31.0761905 C1.23628571,31.0761905 0.743809524,31.5686667 0.743809524,32.1737143 C0.743809524,32.7791429 1.23628571,33.2715238 1.84152381,33.2715238 L4.61104762,33.2715238 C4.76961905,33.2715238 4.89819048,33.4000952 4.89819048,33.5586667 C4.89819048,33.7171429 4.76961905,33.8458095 4.61104762,33.8458095 C4.00580952,33.8458095 3.51333333,34.3382857 3.51333333,34.9433333 C3.51333333,35.5485714 4.00580952,36.0409524 4.61104762,36.0409524 L7.38066667,36.0409524 C7.5392381,36.0409524 7.66780952,36.1695238 7.66780952,36.3280952 C7.66780952,36.4865714 7.5392381,36.6152381 7.38066667,36.6152381 M20.5360952,39.3848571 L7.38066667,39.3848571 C6.45866667,39.3848571 5.70866667,38.6348571 5.70866667,37.7129524 C5.70866667,37.2933333 5.86409524,36.9091429 6.12047619,36.6152381 L4.61104762,36.6152381 C3.68904762,36.6152381 2.93904762,35.8652381 2.93904762,34.9433333 C2.93904762,34.5237143 3.09447619,34.1397143 3.35085714,33.8458095 L1.84152381,33.8458095 C0.91952381,33.8458095 0.16952381,33.0958095 0.16952381,32.1737143 C0.16952381,31.2519048 0.91952381,30.502 1.84152381,30.502 L3.34980952,30.502 C3.04971429,30.1571429 2.90314286,29.6997143 2.94685714,29.2409524 C3.02761905,28.3950476 3.78466667,27.7322857 4.67057143,27.7322857 L14.6507619,27.7322857 C14.8740952,27.7322857 15.0559048,27.5505714 15.0559048,27.3271429 L15.0559048,22.1341905 C15.0559048,21.5668571 15.2967619,21.0224762 15.7167619,20.6405714 C16.1425714,20.2534286 16.6945714,20.0694286 17.2714286,20.1254286 C18.2924762,20.2229524 19.0922857,21.1379048 19.0922857,22.2085714 L19.0922857,26.6347619 C19.0922857,27.2398095 19.5847619,27.7322857 20.1898095,27.7322857 L20.5360952,27.7322857 C21.7426667,27.7322857 22.7408571,28.6407619 22.8829524,29.8094286 L28.1522857,29.8094286 C28.3108571,29.8094286 28.4394286,29.9380952 28.4394286,30.0966667 L28.4394286,37.0205714 C28.4394286,37.1791429 28.3108571,37.307619 28.1522857,37.307619 L22.8829524,37.307619 C22.7408571,38.4764762 21.7426667,39.3848571 20.5360952,39.3848571" id="Fill-22" fill="#0A0B09"></path>
            <polygon id="Fill-23" fill="#F8D5B9" points="26.238 36.7334286 27.8651429 36.7334286 27.8651429 30.3837143 26.238 30.3837143"></polygon>
            <polyline id="Fill-24" fill="#0A0B09" points="28.152381 37.0205714 26.238 37.0205714 26.238 36.7334286 27.8651429 36.7334286 27.8651429 30.3837143 26.238 30.3837143 26.238 30.0966667 28.152381 30.0966667 28.152381 37.0205714"></polyline>
            <path d="M10.1501905,25.2499048 L2.53380952,25.2499048 C1.38666667,25.2499048 0.456666667,24.3199048 0.456666667,23.1727619 L0.456666667,15.5564762 C0.456666667,14.4092381 1.38666667,13.4793333 2.53380952,13.4793333 L10.1501905,13.4793333 C11.2973333,13.4793333 12.2273333,14.4092381 12.2273333,15.5564762 L12.2273333,23.1727619 C12.2273333,24.3199048 11.2973333,25.2499048 10.1501905,25.2499048" id="Fill-25" fill="#A297AC"></path>
            <path d="M2.53380952,13.7664762 C1.54685714,13.7664762 0.743809524,14.5694286 0.743809524,15.5564762 L0.743809524,23.1727619 C0.743809524,24.1597143 1.54685714,24.9626667 2.53380952,24.9626667 L10.1501905,24.9626667 C11.1371429,24.9626667 11.9401905,24.1597143 11.9401905,23.1727619 L11.9401905,15.5564762 C11.9401905,14.5694286 11.1371429,13.7664762 10.1501905,13.7664762 L2.53380952,13.7664762 M10.1501905,25.5370476 L2.53380952,25.5370476 C1.23019048,25.5370476 0.16952381,24.4764762 0.16952381,23.1727619 L0.16952381,15.5564762 C0.16952381,14.2527619 1.23019048,13.1921905 2.53380952,13.1921905 L10.1501905,13.1921905 C11.4538095,13.1921905 12.5144762,14.2527619 12.5144762,15.5564762 L12.5144762,23.1727619 C12.5144762,24.4764762 11.4538095,25.5370476 10.1501905,25.5370476" id="Fill-26" fill="#0A0B09"></path>
            <path d="M17.7230476,8.73257143 C17.5931429,8.86247619 17.4170476,8.93552381 17.2334286,8.93552381 C17.0499048,8.93552381 16.8737143,8.86247619 16.7439048,8.73257143 L13.7433333,5.73180952 C13.4728571,5.46133333 13.4728571,5.0232381 13.7433333,4.7527619 C14.0134286,4.48228571 14.4522857,4.48228571 14.722381,4.7527619 L17.2334286,7.264 L22.8253333,1.67219048 C22.5297143,0.885142857 21.7724762,0.323904762 20.8822857,0.323904762 L13.2659048,0.323904762 C12.1187619,0.323904762 11.1887619,1.25390476 11.1887619,2.40104762 L11.1887619,10.0173333 C11.1887619,11.1645714 12.1187619,12.0944762 13.2659048,12.0944762 L20.8822857,12.0944762 C22.0294286,12.0944762 22.9593333,11.1645714 22.9593333,10.0173333 L22.9593333,3.49628571 L17.7230476,8.73257143" id="Fill-27" fill="#A297AC"></path>
            <path d="M13.2659048,0.611047619 C12.2789524,0.611047619 11.4759048,1.41409524 11.4759048,2.40104762 L11.4759048,10.0173333 C11.4759048,11.0042857 12.2789524,11.8073333 13.2659048,11.8073333 L20.8822857,11.8073333 C21.8693333,11.8073333 22.672381,11.0042857 22.672381,10.0173333 L22.672381,4.18942857 L17.926,8.93561905 C17.7410476,9.1207619 17.4950476,9.22257143 17.2334286,9.22257143 C16.9719048,9.22257143 16.7259048,9.1207619 16.5409524,8.93561905 L13.5401905,5.93485714 C13.158381,5.55295238 13.158381,4.93161905 13.5400952,4.54971429 C13.7250476,4.3647619 13.9710476,4.2627619 14.2327619,4.2627619 C14.4945714,4.2627619 14.7405714,4.3647619 14.9255238,4.54980952 L17.2334286,6.85780952 L22.4842857,1.60714286 C22.1848571,1.0047619 21.5621905,0.611047619 20.8822857,0.611047619 L13.2659048,0.611047619 M20.8822857,12.381619 L13.2659048,12.381619 C11.9621905,12.381619 10.901619,11.3210476 10.901619,10.0173333 L10.901619,2.40104762 C10.901619,1.09742857 11.9621905,0.0367619048 13.2659048,0.0367619048 L20.8822857,0.0367619048 C21.8607619,0.0367619048 22.7497143,0.653428571 23.094,1.57133333 C23.133619,1.6767619 23.1079048,1.79561905 23.0282857,1.8752381 L17.4364762,7.46695238 C17.3826667,7.52085714 17.309619,7.55114286 17.2334286,7.55114286 C17.1572381,7.55114286 17.0842857,7.52085714 17.0304762,7.46695238 L14.5194286,4.95571429 C14.366381,4.8027619 14.0994286,4.80266667 13.946381,4.95561905 C13.788381,5.11371429 13.788381,5.37085714 13.946381,5.52885714 L16.9469524,8.52961905 C17.0978095,8.68047619 17.3690476,8.68047619 17.5199048,8.52961905 L22.756381,3.2932381 C22.8385714,3.21104762 22.9622857,3.18657143 23.0693333,3.23095238 C23.1766667,3.27542857 23.2465714,3.38009524 23.2465714,3.49628571 L23.2465714,10.0173333 C23.2465714,11.3210476 22.186,12.381619 20.8822857,12.381619" id="Fill-28" fill="#0A0B09"></path>
            <path d="M31.6142857,25.2499048 L23.998,25.2499048 C22.8508571,25.2499048 21.9207619,24.3199048 21.9207619,23.1727619 L21.9207619,15.5564762 C21.9207619,14.4092381 22.8508571,13.4793333 23.998,13.4793333 L31.6142857,13.4793333 C32.7614286,13.4793333 33.6914286,14.4092381 33.6914286,15.5564762 L33.6914286,23.1727619 C33.6914286,24.3199048 32.7614286,25.2499048 31.6142857,25.2499048" id="Fill-29" fill="#A297AC"></path>
            <path d="M23.998,13.7664762 C23.0108571,13.7664762 22.208,14.5694286 22.208,15.5564762 L22.208,23.1727619 C22.208,24.1597143 23.0108571,24.9626667 23.998,24.9626667 L31.6142857,24.9626667 C32.6013333,24.9626667 33.404381,24.1597143 33.404381,23.1727619 L33.404381,15.5564762 C33.404381,14.5694286 32.6013333,13.7664762 31.6142857,13.7664762 L23.998,13.7664762 M31.6142857,25.5370476 L23.998,25.5370476 C22.6941905,25.5370476 21.633619,24.4764762 21.633619,23.1727619 L21.633619,15.5564762 C21.633619,14.2527619 22.6941905,13.1921905 23.998,13.1921905 L31.6142857,13.1921905 C32.9180952,13.1921905 33.9785714,14.2527619 33.9785714,15.5564762 L33.9785714,23.1727619 C33.9785714,24.4764762 32.9180952,25.5370476 31.6142857,25.5370476" id="Fill-30" fill="#0A0B09"></path>
            <path d="M31.6142857,24.9626667 L30.754381,24.9626667 C31.3664762,24.6013333 31.7770476,23.9349524 31.7770476,23.1727619 L31.7770476,15.5564762 C31.7770476,14.7941905 31.3664762,14.1278095 30.754381,13.7664762 L31.6142857,13.7664762 C32.6013333,13.7664762 33.404381,14.5694286 33.404381,15.5564762 L33.404381,23.1727619 C33.404381,24.1597143 32.6013333,24.9626667 31.6142857,24.9626667" id="Fill-31" fill="#8F849C"></path>
            <path d="M31.6142857,25.2499048 L29.6999048,25.2499048 C30.0848571,25.2499048 30.4453333,25.1452381 30.754381,24.9626667 L31.6142857,24.9626667 C32.6013333,24.9626667 33.404381,24.1597143 33.404381,23.1727619 L33.404381,15.5564762 C33.404381,14.5694286 32.6013333,13.7664762 31.6142857,13.7664762 L30.754381,13.7664762 C30.4453333,13.584 30.0848571,13.4793333 29.6999048,13.4793333 L31.6142857,13.4793333 C32.7614286,13.4793333 33.6914286,14.4092381 33.6914286,15.5564762 L33.6914286,23.1727619 C33.6914286,24.3199048 32.7614286,25.2499048 31.6142857,25.2499048" id="Fill-32" fill="#0A0B09"></path>
            <path d="M21.0450476,5.00457143 L21.0450476,3.85847619 L22.9179048,1.98561905 C22.9450476,2.11961905 22.9593333,2.25847619 22.9593333,2.40047619 L22.9593333,3.20914286 C22.8847619,3.20914286 22.8112381,3.23838095 22.756381,3.2932381 L21.0450476,5.00457143" id="Fill-33" fill="#CBD8DC"></path>
            <path d="M20.8822857,11.8073333 L20.0215238,11.8073333 C20.6340952,11.4460952 21.0450476,10.7794286 21.0450476,10.0168571 L21.0450476,5.8167619 L22.672381,4.18942857 L22.672381,10.0173333 C22.672381,11.0042857 21.8693333,11.8073333 20.8822857,11.8073333 M21.0450476,3.04638095 L21.0450476,2.40047619 C21.0450476,1.63857143 20.6347619,0.97247619 20.0231429,0.611047619 L20.8822857,0.611047619 C21.5621905,0.611047619 22.1848571,1.0047619 22.4842857,1.60714286 L21.0450476,3.04638095" id="Fill-34" fill="#8F849C"></path>
            <path d="M20.8822857,12.094 L18.9679048,12.094 C19.3524762,12.094 19.7126667,11.9895238 20.0215238,11.8073333 L20.8822857,11.8073333 C21.8693333,11.8073333 22.672381,11.0042857 22.672381,10.0173333 L22.672381,4.18942857 L21.0450476,5.8167619 L21.0450476,5.00457143 L22.756381,3.2932381 C22.8112381,3.23838095 22.8847619,3.20914286 22.9593333,3.20914286 L22.9593333,10.0168571 C22.9593333,11.164 22.0294286,12.094 20.8822857,12.094 M21.0450476,3.85847619 L21.0450476,3.04638095 L22.4842857,1.60714286 C22.1848571,1.0047619 21.5621905,0.611047619 20.8822857,0.611047619 L20.0231429,0.611047619 C19.7139048,0.428285714 19.3531429,0.323428571 18.9679048,0.323428571 L20.8822857,0.323428571 C21.8873333,0.323428571 22.7257143,1.0372381 22.9179048,1.98561905 L21.0450476,3.85847619" id="Fill-35" fill="#0A0B09"></path>
            <path d="M10.1501905,24.9626667 L9.29028571,24.9626667 C9.90238095,24.6013333 10.3130476,23.9349524 10.3130476,23.1727619 L10.3130476,15.5564762 C10.3130476,14.7941905 9.90238095,14.1278095 9.29028571,13.7664762 L10.1501905,13.7664762 C11.1371429,13.7664762 11.9401905,14.5694286 11.9401905,15.5564762 L11.9401905,23.1727619 C11.9401905,24.1597143 11.1371429,24.9626667 10.1501905,24.9626667" id="Fill-36" fill="#8F849C"></path>
            <path d="M10.1501905,25.2499048 L8.23580952,25.2499048 C8.6207619,25.2499048 8.9812381,25.1452381 9.29028571,24.9626667 L10.1501905,24.9626667 C11.1371429,24.9626667 11.9401905,24.1597143 11.9401905,23.1727619 L11.9401905,15.5564762 C11.9401905,14.5694286 11.1371429,13.7664762 10.1501905,13.7664762 L9.29028571,13.7664762 C8.98114286,13.584 8.62066667,13.4793333 8.23580952,13.4793333 L10.1501905,13.4793333 C11.2973333,13.4793333 12.2273333,14.4092381 12.2273333,15.5564762 L12.2273333,23.1727619 C12.2273333,24.3199048 11.2973333,25.2499048 10.1501905,25.2499048" id="Fill-37" fill="#0A0B09"></path>
            <polyline id="Fill-38" fill="#F9CE67" points="27.8060952 15.5564762 28.8446667 18.326 31.9604762 18.326 29.5371429 20.0570476 30.5757143 22.8265714 27.8060952 21.4418095 25.0365714 22.8265714 26.0751429 20.0570476 23.6518095 18.326 26.7675238 18.326 27.8060952 15.5564762"></polyline>
            <path d="M27.8060952,21.1545714 C27.85,21.1545714 27.8940952,21.1646667 27.9345714,21.1848571 L30.0500952,22.2426667 L29.2682857,20.1579048 C29.2227619,20.0360952 29.264381,19.8989524 29.3702857,19.8233333 L31.064381,18.6131429 L28.8446667,18.6131429 C28.7250476,18.6131429 28.6179048,18.5389524 28.5759048,18.4268571 L27.8060952,16.3742857 L27.036381,18.4268571 C26.9942857,18.5389524 26.8871429,18.6131429 26.767619,18.6131429 L24.5477143,18.6131429 L26.2420952,19.8233333 C26.3478095,19.8989524 26.3895238,20.0360952 26.3439048,20.1579048 L25.5622857,22.2426667 L27.677619,21.1848571 C27.718,21.1646667 27.7620952,21.1545714 27.8060952,21.1545714 Z M30.5757143,23.1137143 C30.5319048,23.1137143 30.488,23.1038095 30.4472381,23.0834286 L27.8060952,21.7628571 L25.1650476,23.0834286 C25.0594286,23.1360952 24.9324762,23.1189524 24.844381,23.0399048 C24.7567619,22.9609524 24.7262857,22.8362857 24.7678095,22.7257143 L25.7288571,20.1625714 L23.4847619,18.559619 C23.3832381,18.4871429 23.3402857,18.3571429 23.3782857,18.2382857 C23.416381,18.1195238 23.5268571,18.0388571 23.6517143,18.0388571 L26.5686667,18.0388571 L27.5372381,15.455619 C27.5792381,15.3435238 27.686381,15.2693333 27.8060952,15.2693333 C27.9257143,15.2693333 28.0328571,15.3435238 28.0748571,15.455619 L29.043619,18.0388571 L31.960381,18.0388571 C32.0853333,18.0388571 32.1958095,18.1195238 32.2339048,18.2382857 C32.2718095,18.3571429 32.2287619,18.4870476 32.1273333,18.559619 L29.8833333,20.1625714 L30.8444762,22.7257143 C30.886,22.8362857 30.8555238,22.9609524 30.7679048,23.0399048 C30.7138095,23.0884762 30.6449524,23.1137143 30.5757143,23.1137143 L30.5757143,23.1137143 Z" id="Fill-39" fill="#0A0B09"></path>
            <polyline id="Fill-40" fill="#F9CE67" points="6.342 15.5564762 7.38057143 18.326 10.496381 18.326 8.07304762 20.0570476 9.11152381 22.8265714 6.342 21.4418095 3.57247619 22.8265714 4.61104762 20.0570476 2.18771429 18.326 5.30342857 18.326 6.342 15.5564762"></polyline>
            <path d="M3.08361905,18.6131429 L4.77790476,19.8233333 C4.88371429,19.8989524 4.92552381,20.0360952 4.87980952,20.1579048 L4.098,22.2426667 L6.21361905,21.1848571 C6.29457143,21.1444762 6.38952381,21.1444762 6.47047619,21.1848571 L8.586,22.2426667 L7.80419048,20.1579048 C7.75847619,20.0360952 7.80028571,19.8989524 7.90609524,19.8233333 L9.60038095,18.6131429 L7.38066667,18.6131429 C7.26085714,18.6131429 7.15380952,18.5389524 7.11180952,18.4268571 L6.342,16.3742857 L5.57228571,18.4268571 C5.53028571,18.5389524 5.4232381,18.6131429 5.30352381,18.6131429 L3.08361905,18.6131429 Z M3.57257143,23.1137143 C3.50295238,23.1137143 3.43419048,23.0884762 3.38038095,23.0399048 C3.29257143,22.9609524 3.26209524,22.8362857 3.30361905,22.7257143 L4.2647619,20.1625714 L2.02066667,18.559619 C1.91914286,18.4871429 1.87609524,18.3571429 1.91419048,18.2382857 C1.95228571,18.1195238 2.06285714,18.0388571 2.18761905,18.0388571 L5.10447619,18.0388571 L6.0732381,15.455619 C6.11514286,15.3435238 6.22228571,15.2693333 6.342,15.2693333 C6.46180952,15.2693333 6.56895238,15.3435238 6.61085714,15.455619 L7.57961905,18.0388571 L10.496381,18.0388571 C10.6211429,18.0388571 10.7317143,18.1195238 10.7698095,18.2382857 C10.8079048,18.3571429 10.7648571,18.4871429 10.6633333,18.559619 L8.4192381,20.1625714 L9.38038095,22.7257143 C9.42190476,22.8362857 9.39142857,22.9609524 9.30361905,23.0399048 C9.21590476,23.1187619 9.08866667,23.136 8.98314286,23.0834286 L6.342,21.7628571 L3.70085714,23.0834286 C3.66009524,23.1038095 3.61619048,23.1137143 3.57257143,23.1137143 L3.57257143,23.1137143 Z" id="Fill-41" fill="#0A0B09"></path>
            <path d="M1.84152381,31.0761905 C1.23619048,31.0761905 0.743809524,31.5686667 0.743809524,32.1737143 C0.743809524,32.7791429 1.23619048,33.2715238 1.84152381,33.2715238 L13.6711429,33.2715238 L13.6711429,31.0761905 L1.84152381,31.0761905 Z M13.958381,33.8458095 L1.84152381,33.8458095 C0.91952381,33.8458095 0.16952381,33.0958095 0.16952381,32.1737143 C0.16952381,31.252 0.91952381,30.502 1.84152381,30.502 L13.958381,30.502 C14.1169524,30.502 14.2455238,30.6304762 14.2455238,30.7890476 L14.2455238,33.5586667 C14.2455238,33.7171429 14.1169524,33.8458095 13.958381,33.8458095 L13.958381,33.8458095 Z" id="Fill-42" fill="#0A0B09"></path>
            <path d="M4.61104762,33.8458095 C4.00580952,33.8458095 3.51333333,34.3382857 3.51333333,34.9433333 C3.51333333,35.5485714 4.00580952,36.0409524 4.61104762,36.0409524 L13.6711429,36.0409524 L13.6711429,33.8458095 L4.61104762,33.8458095 Z M13.958381,36.6152381 L4.61104762,36.6152381 C3.68904762,36.6152381 2.93904762,35.8652381 2.93904762,34.9433333 C2.93904762,34.021619 3.68904762,33.2715238 4.61104762,33.2715238 L13.958381,33.2715238 C14.1169524,33.2715238 14.2455238,33.4000952 14.2455238,33.5586667 L14.2455238,36.3280952 C14.2455238,36.4865714 14.1169524,36.6152381 13.958381,36.6152381 L13.958381,36.6152381 Z" id="Fill-43" fill="#0A0B09"></path>
            <path d="M15.3430476,39.3848571 L7.38066667,39.3848571 C6.45866667,39.3848571 5.70866667,38.6348571 5.70866667,37.7129524 C5.70866667,36.7910476 6.45866667,36.0409524 7.38066667,36.0409524 L13.958381,36.0409524 C14.1169524,36.0409524 14.2455238,36.1695238 14.2455238,36.3280952 C14.2455238,36.4865714 14.1169524,36.6152381 13.958381,36.6152381 L7.38066667,36.6152381 C6.77542857,36.6152381 6.28295238,37.1077143 6.28295238,37.7129524 C6.28295238,38.3181905 6.77542857,38.8105714 7.38066667,38.8105714 L15.3430476,38.8105714 C15.5017143,38.8105714 15.6301905,38.9391429 15.6301905,39.0977143 C15.6301905,39.2561905 15.5017143,39.3848571 15.3430476,39.3848571" id="Fill-44" fill="#0A0B09"></path>
            <path d="M33.6915238,39.3848571 L28.8446667,39.3848571 C28.3045714,39.3848571 27.8651429,38.9454286 27.8651429,38.4052381 L27.8651429,28.7119048 C27.8651429,28.1718095 28.3045714,27.7322857 28.8446667,27.7322857 L33.6915238,27.7322857 C33.8500952,27.7322857 33.9785714,27.8609524 33.9785714,28.0194286 C33.9785714,28.178 33.8500952,28.3066667 33.6915238,28.3066667 L28.8446667,28.3066667 C28.6212381,28.3066667 28.4394286,28.4884762 28.4394286,28.7119048 L28.4394286,38.4052381 C28.4394286,38.6286667 28.6212381,38.8105714 28.8446667,38.8105714 L33.6915238,38.8105714 C33.8500952,38.8105714 33.9785714,38.9391429 33.9785714,39.0977143 C33.9785714,39.2561905 33.8500952,39.3848571 33.6915238,39.3848571" id="Fill-45" fill="#0A0B09"></path>
            <path d="M20.5360952,39.3848571 L15.3430476,39.3848571 C15.1844762,39.3848571 15.0559048,39.2561905 15.0559048,39.0977143 C15.0559048,38.9391429 15.1844762,38.8105714 15.3430476,38.8105714 L20.5360952,38.8105714 C21.5231429,38.8105714 22.3260952,38.007619 22.3260952,37.0205714 C22.3260952,36.8620952 22.4546667,36.7334286 22.6131429,36.7334286 L27.8651429,36.7334286 L27.8651429,30.3837143 L22.6131429,30.3837143 C22.4546667,30.3837143 22.3260952,30.2551429 22.3260952,30.0966667 C22.3260952,29.1095238 21.5231429,28.3066667 20.5360952,28.3066667 L20.1898095,28.3066667 C19.268,28.3066667 18.5179048,27.5565714 18.5179048,26.6347619 L18.5179048,22.2085714 C18.5179048,21.4306667 17.9464762,20.7667619 17.2168571,20.6971429 C16.8034286,20.6581905 16.4078095,20.7885714 16.1031429,21.0655238 C15.8025714,21.3388571 15.6301905,21.7282857 15.6301905,22.1341905 L15.6301905,27.3272381 C15.6301905,27.8672381 15.1907619,28.3066667 14.6507619,28.3066667 L4.67057143,28.3066667 C4.07752381,28.3066667 3.57152381,28.7410476 3.51857143,29.295619 C3.48857143,29.61 3.588,29.9107619 3.79857143,30.142381 C4.00628571,30.3709524 4.30247619,30.502 4.61104762,30.502 L13.958381,30.502 C14.1169524,30.502 14.2455238,30.6304762 14.2455238,30.7890476 L14.2455238,37.7129524 C14.2455238,37.8715238 14.1169524,38.0001905 13.958381,38.0001905 C13.7997143,38.0001905 13.6711429,37.8715238 13.6711429,37.7129524 L13.6711429,31.0761905 L4.61104762,31.0761905 C4.14104762,31.0761905 3.68990476,30.8765714 3.37361905,30.5286667 C3.05752381,30.1808571 2.90209524,29.7117143 2.94685714,29.2409524 C3.02771429,28.3949524 3.78466667,27.7322857 4.67057143,27.7322857 L14.6507619,27.7322857 C14.8740952,27.7322857 15.0559048,27.5505714 15.0559048,27.3272381 L15.0559048,22.1341905 C15.0559048,21.5668571 15.2967619,21.0224762 15.7167619,20.6405714 C16.1425714,20.2534286 16.6945714,20.0694286 17.2714286,20.1254286 C18.2924762,20.2229524 19.0922857,21.1379048 19.0922857,22.2085714 L19.0922857,26.6347619 C19.0922857,27.2399048 19.5847619,27.7322857 20.1898095,27.7322857 L20.5360952,27.7322857 C21.7426667,27.7322857 22.7408571,28.6407619 22.8829524,29.8094286 L28.1522857,29.8094286 C28.3108571,29.8094286 28.4394286,29.9380952 28.4394286,30.0966667 L28.4394286,37.0205714 C28.4394286,37.1791429 28.3108571,37.307619 28.1522857,37.307619 L22.8829524,37.307619 C22.7408571,38.4764762 21.7426667,39.3848571 20.5360952,39.3848571" id="Fill-46" fill="#0A0B09"></path>
            <path d="M30.229619,11.6215238 C30.1311429,11.6215238 30.0349524,11.5706667 29.981619,11.4794286 C28.7991429,9.4592381 27.1333333,7.72009524 25.1645714,6.44990476 C25.0313333,6.364 24.9928571,6.18628571 25.0788571,6.05304762 C25.1650476,5.91961905 25.3428571,5.88152381 25.4759048,5.96742857 C27.52,7.28590476 29.2494286,9.09161905 30.4773333,11.1893333 C30.5574286,11.3260952 30.5113333,11.502 30.3745714,11.5821905 C30.3288571,11.6089524 30.2790476,11.6215238 30.229619,11.6215238" id="Fill-47" fill="#0A0B09"></path>
            <path d="M27.2757143,10.9985714 C27.192381,10.9985714 27.109619,10.9624762 27.0528571,10.8928571 C26.5529524,10.2795238 25.9930476,9.70895238 25.3890476,9.19695238 C25.268,9.09447619 25.2530476,8.9132381 25.3555238,8.79228571 C25.458,8.67114286 25.6391429,8.65628571 25.7602857,8.7587619 C26.3912381,9.29361905 26.9758095,9.88942857 27.4980952,10.53 C27.5982857,10.6529524 27.5798095,10.8338095 27.4570476,10.934 C27.4035238,10.9775238 27.3394286,10.9985714 27.2757143,10.9985714" id="Fill-48" fill="#0A0B09"></path>
            <path d="M3.85580952,11.6215238 C3.80657143,11.6215238 3.75666667,11.6089524 3.71104762,11.5821905 C3.57419048,11.502 3.52819048,11.3260952 3.60828571,11.1893333 C4.83619048,9.09161905 6.56561905,7.28590476 8.60961905,5.96742857 C8.74304762,5.88133333 8.92066667,5.91980952 9.00647619,6.05304762 C9.09247619,6.18628571 9.05419048,6.364 8.92085714,6.44990476 C6.95228571,7.72 5.28657143,9.45914286 4.10390476,11.4794286 C4.05057143,11.5706667 3.95447619,11.6215238 3.85580952,11.6215238" id="Fill-49" fill="#0A0B09"></path>
            <path d="M6.80971429,10.9985714 C6.746,10.9985714 6.68171429,10.9775238 6.62847619,10.934 C6.50552381,10.8338095 6.48714286,10.6529524 6.58733333,10.53 C7.10990476,9.88904762 7.69457143,9.2932381 8.3252381,8.7587619 C8.44619048,8.65638095 8.62733333,8.67142857 8.72990476,8.79228571 C8.83247619,8.9132381 8.81742857,9.09447619 8.69647619,9.19695238 C8.0927619,9.70857143 7.5327619,10.2792381 7.03247619,10.8928571 C6.97571429,10.9624762 6.89304762,10.9985714 6.80971429,10.9985714" id="Fill-50" fill="#0A0B09"></path>
            <path d="M17.2334286,8.93552381 C17.0499048,8.93552381 16.8737143,8.86247619 16.7439048,8.73257143 L13.7433333,5.73180952 C13.4728571,5.46133333 13.4728571,5.0232381 13.7433333,4.7527619 C14.0134286,4.48228571 14.4522857,4.48228571 14.722381,4.7527619 L17.2334286,7.264 L23.566381,0.931047619 C23.8364762,0.660666667 24.2754286,0.660666667 24.5455238,0.931047619 C24.8159048,1.20152381 24.8159048,1.63971429 24.5455238,1.91019048 L17.7230476,8.73257143 C17.5932381,8.86247619 17.4170476,8.93552381 17.2334286,8.93552381" id="Fill-51" fill="#B0D59A"></path>
            <path d="M14.2328571,4.83704762 C14.1245714,4.83704762 14.0228571,4.87914286 13.946381,4.95561905 C13.788381,5.11371429 13.788381,5.37085714 13.946381,5.52885714 L16.9469524,8.52961905 C17.0978095,8.68047619 17.3690476,8.68047619 17.5199048,8.52961905 L24.3424762,1.70704762 C24.4191429,1.63047619 24.4612381,1.5287619 24.4612381,1.42057143 C24.4612381,1.31247619 24.4191429,1.2107619 24.3424762,1.13419048 C24.1893333,0.980761905 23.9226667,0.980761905 23.7697143,1.134 L17.4364762,7.46695238 C17.3826667,7.52085714 17.309619,7.55114286 17.2334286,7.55114286 C17.1572381,7.55114286 17.0842857,7.52085714 17.0304762,7.46695238 L14.5194286,4.95571429 C14.4427619,4.87914286 14.3411429,4.83704762 14.2328571,4.83704762 Z M17.2334286,9.22257143 C16.9719048,9.22257143 16.7259048,9.1207619 16.5409524,8.93561905 L13.5401905,5.93485714 C13.158381,5.55295238 13.158381,4.93161905 13.5400952,4.54971429 C13.7250476,4.3647619 13.9710476,4.2627619 14.2328571,4.2627619 C14.4945714,4.2627619 14.7405714,4.3647619 14.9255238,4.54980952 L17.2334286,6.85780952 L23.3634286,0.728095238 C23.5481905,0.542952381 23.7941905,0.440952381 24.0559048,0.440952381 C24.3178095,0.440952381 24.5638095,0.542952381 24.7486667,0.728190476 C24.933619,0.913047619 25.0355238,1.15895238 25.0355238,1.42057143 C25.0355238,1.68219048 24.933619,1.92819048 24.7484762,2.1132381 L17.926,8.93561905 C17.7410476,9.1207619 17.4950476,9.22257143 17.2334286,9.22257143 L17.2334286,9.22257143 Z" id="Fill-52" fill="#0A0B09"></path>
        </g>
    </g>
</svg>