<?xml version="1.0" encoding="UTF-8"?>
<svg viewBox="0 0 40 40" version="1.1" xmlns="http://www.w3.org/2000/svg" xmlns:xlink="http://www.w3.org/1999/xlink">
    <title>Investigacion_40x40</title>
    <g id="Investigacion_40x40" stroke="none" stroke-width="1" fill="none" fill-rule="evenodd">
        <g id="shutterstock_1272571855" transform="translate(21.526316, 21.000000) rotate(-45.000000) translate(-21.526316, -21.000000) translate(7.000000, -2.000000)">
            <path d="M27.5881368,14.6034263 C27.5881368,21.9198474 21.6570421,27.8509421 14.3407421,27.8509421 C7.02432105,27.8509421 1.09322632,21.9198474 1.09322632,14.6034263 C1.09322632,7.28700526 7.02432105,1.35591053 14.3407421,1.35591053 C21.6570421,1.35591053 27.5881368,7.28700526 27.5881368,14.6034263" id="Fill-16" fill="#BAB3C1"></path>
            <path d="M14.3407421,1.84254211 C7.30431579,1.84254211 1.57985789,7.56712105 1.57985789,14.6035474 C1.57985789,21.6398526 7.30431579,27.3643105 14.3407421,27.3643105 C21.3770474,27.3643105 27.1017474,21.6398526 27.1017474,14.6035474 C27.1017474,7.56712105 21.3770474,1.84254211 14.3407421,1.84254211 M14.3407421,28.3376947 C6.76768947,28.3376947 0.606594737,22.1764789 0.606594737,14.6035474 C0.606594737,7.03037368 6.76768947,0.869278947 14.3407421,0.869278947 C21.9136737,0.869278947 28.0750105,7.03037368 28.0750105,14.6035474 C28.0750105,22.1764789 21.9136737,28.3376947 14.3407421,28.3376947" id="Fill-17" fill="#0A0B09"></path>
            <path d="M23.8031842,14.6034263 C23.8031842,19.8295105 19.5667053,24.0659895 14.3407421,24.0659895 C9.11465789,24.0659895 4.87817895,19.8295105 4.87817895,14.6034263 C4.87817895,9.37746316 9.11465789,5.14098421 14.3407421,5.14098421 C19.5667053,5.14098421 23.8031842,9.37746316 23.8031842,14.6034263" id="Fill-22" fill="#E8F5F4"></path>
            <path d="M14.3407421,5.62749474 C9.39138421,5.62749474 5.36481053,9.65406842 5.36481053,14.6035474 C5.36481053,19.5527842 9.39138421,23.5793579 14.3407421,23.5793579 C19.2901,23.5793579 23.3166737,19.5527842 23.3166737,14.6035474 C23.3166737,9.65406842 19.2901,5.62749474 14.3407421,5.62749474 M14.3407421,24.5526211 C8.85463684,24.5526211 4.39142632,20.0894105 4.39142632,14.6035474 C4.39142632,9.11744211 8.85463684,4.65423158 14.3407421,4.65423158 C19.8267263,4.65423158 24.2899368,9.11744211 24.2899368,14.6035474 C24.2899368,20.0894105 19.8267263,24.5526211 14.3407421,24.5526211" id="Fill-23" fill="#0A0B09"></path>
            <path d="M14.3407421,23.5793579 C11.9044368,23.5793579 9.69159474,22.6035526 8.07275789,21.0224842 C9.11356842,21.4166316 10.2419,21.6327105 11.4208316,21.6327105 C16.6467947,21.6327105 20.8833947,17.3962316 20.8833947,12.1702684 C20.8833947,10.3778421 20.3838105,8.70283684 19.5176789,7.27465789 C21.8147737,8.90196842 23.3166737,11.5805 23.3166737,14.6035474 C23.3166737,19.5527842 19.2901,23.5793579 14.3407421,23.5793579" id="Fill-24" fill="#CFEAE9"></path>
            <path d="M14.3407421,24.0659895 C11.3506211,24.0659895 8.68625263,22.6776368 6.95217368,20.5120053 C7.31242632,20.7054474 7.68647895,20.8761316 8.07275789,21.0224842 C9.69159474,22.6035526 11.9044368,23.5793579 14.3407421,23.5793579 C19.2901,23.5793579 23.3166737,19.5527842 23.3166737,14.6035474 C23.3166737,11.5805 21.8147737,8.90196842 19.5176789,7.27465789 C19.3034158,6.92118421 19.0665158,6.58284211 18.8092789,6.26168947 C21.7816053,7.85716316 23.8033053,10.9938789 23.8033053,14.6034263 C23.8033053,19.8295105 19.5667053,24.0659895 14.3407421,24.0659895" id="Fill-25" fill="#0A0B09"></path>
            <path d="M13.1672579,8.56992105 C12.9360474,8.56992105 12.7309842,8.40444211 12.6887368,8.16887368 C12.6415263,7.90425263 12.8175368,7.65149474 13.0821579,7.60416316 C13.4943421,7.53044211 13.9177842,7.49303684 14.3407421,7.49303684 C14.6094789,7.49303684 14.8273737,7.71105263 14.8273737,7.97966842 C14.8273737,8.24852632 14.6094789,8.46642105 14.3407421,8.46642105 C13.9750421,8.46642105 13.6092211,8.49874211 13.2534474,8.56229474 C13.2245158,8.5675 13.1957053,8.56992105 13.1672579,8.56992105" id="Fill-26" fill="#0A0B09"></path>
            <path d="M7.71698421,15.0901789 C7.44824737,15.0901789 7.23035263,14.8721632 7.23035263,14.6035474 C7.23035263,11.9186 8.71651579,9.49101053 11.109,8.26837895 C11.3486842,8.14647895 11.6416316,8.2409 11.7637737,8.48022105 C11.8860368,8.71942105 11.7911316,9.01273158 11.5519316,9.13487368 C9.48665263,10.1904526 8.20361579,12.2858737 8.20361579,14.6035474 C8.20361579,14.8721632 7.98572105,15.0901789 7.71698421,15.0901789" id="Fill-27" fill="#0A0B09"></path>
            <path d="M14.3407421,27.8509421 C13.4913158,27.8509421 12.6617421,27.7677789 11.8567421,27.6150105 L11.8567421,41.9264579 C11.8567421,43.2983474 12.9688526,44.4103368 14.3407421,44.4103368 C15.7125105,44.4103368 16.8246211,43.2983474 16.8246211,41.9264579 L16.8246211,27.6150105 C16.0197421,27.7677789 15.1900474,27.8509421 14.3407421,27.8509421" id="Fill-28" fill="#998EA5"></path>
            <path d="M12.3433737,28.1902526 L12.3433737,41.9264579 C12.3433737,43.0276737 13.2394053,43.9238263 14.3407421,43.9238263 C15.4420789,43.9238263 16.3379895,43.0276737 16.3379895,41.9264579 L16.3379895,28.1902526 C15.0064105,28.3861158 13.6750737,28.3861158 12.3433737,28.1902526 M14.3407421,44.8970895 C12.7026579,44.8970895 11.3701105,43.5645421 11.3701105,41.9264579 L11.3701105,27.6150105 C11.3701105,27.4701105 11.4347526,27.3327158 11.5464842,27.2402316 C11.6577316,27.1477474 11.8043263,27.1099789 11.9475316,27.1369737 C13.5374368,27.4386368 15.1440474,27.4386368 16.7338316,27.1369737 C16.8764316,27.1101 17.0232684,27.1477474 17.135,27.2402316 C17.2467316,27.3327158 17.3112526,27.4701105 17.3112526,27.6150105 L17.3112526,41.9264579 C17.3112526,43.5645421 15.9787053,44.8970895 14.3407421,44.8970895" id="Fill-29" fill="#0A0B09"></path>
            <path d="M14.3407421,31.0141684 C13.6613947,31.0141684 12.9948789,30.9609053 12.3433737,30.8615211 L12.3433737,28.1902526 C13.0092842,28.2881842 13.6749526,28.3372105 14.3407421,28.3372105 C15.0064105,28.3372105 15.6722,28.2881842 16.3379895,28.1902526 L16.3379895,30.8615211 C15.6866053,30.9609053 15.0199684,31.0141684 14.3407421,31.0141684" id="Fill-30" fill="#7D6F8D"></path>
            <path d="M12.3433737,30.8615211 C12.1801947,30.8365842 12.0179842,30.8088632 11.8567421,30.7782368 L11.8567421,27.6150105 C12.6617421,27.7677789 13.4913158,27.8509421 14.3407421,27.8509421 C15.1900474,27.8509421 16.0197421,27.7677789 16.8246211,27.6150105 L16.8246211,30.7782368 C16.6633789,30.8088632 16.5011684,30.8365842 16.3379895,30.8615211 L16.3379895,28.1902526 C15.6722,28.2881842 15.0064105,28.3372105 14.3407421,28.3372105 C13.6749526,28.3372105 13.0092842,28.2881842 12.3433737,28.1902526 L12.3433737,30.8615211" id="Fill-31" fill="#0A0B09"></path>
        </g>
    </g>
</svg>