<?xml version="1.0" encoding="UTF-8"?>
<svg viewBox="0 0 40 40" version="1.1" xmlns="http://www.w3.org/2000/svg" xmlns:xlink="http://www.w3.org/1999/xlink">
    <title>Lanzamiento_40x40</title>
    <g id="Lanzamiento_40x40" stroke="none" stroke-width="1" fill="none" fill-rule="evenodd">
        <g id="shutterstock_1267776076" transform="translate(0.000000, 3.000000)">
            <polygon id="Fill-27" fill="#A297AC" points="13.2838889 30.6498889 22.9991111 30.6498889 22.9991111 26.1392222 13.2838889 26.1392222"></polygon>
            <path d="M13.6188889,30.3147778 L22.6641111,30.3147778 L22.6641111,26.4741111 L13.6188889,26.4741111 L13.6188889,30.3147778 Z M22.9991111,30.9847778 L13.2838889,30.9847778 C13.0988889,30.9847778 12.9488889,30.8347778 12.9488889,30.6497778 L12.9488889,26.1391111 C12.9488889,25.9542222 13.0988889,25.8041111 13.2838889,25.8041111 L22.9991111,25.8041111 C23.1841111,25.8041111 23.3342222,25.9542222 23.3342222,26.1391111 L23.3342222,30.6497778 C23.3342222,30.8347778 23.1841111,30.9847778 22.9991111,30.9847778 L22.9991111,30.9847778 Z" id="Fill-28" fill="#0A0B09"></path>
            <polygon id="Fill-29" fill="#8F849C" points="13.6188889 28.3725556 22.6641111 28.3725556 22.6641111 26.4741111 13.6188889 26.4741111"></polygon>
            <path d="M22.6641111,28.6963333 L22.9991111,28.6963333 L22.9991111,26.4741111 L22.6641111,26.4741111 L22.6641111,28.6963333 Z M13.2838889,28.6963333 L13.6188889,28.6963333 L13.6188889,26.4741111 L13.2838889,26.4741111 L13.2838889,28.6963333 Z" id="Fill-30" fill="#0A0B09"></path>
            <path d="M25.428,30.9968889 L25.428,30.6498889 L9.12022222,30.6498889 L9.12022222,31.6907778 C9.12022222,32.074 8.80955556,32.3846667 8.42622222,32.3846667 L26.8158889,32.3846667 C26.0492222,32.3846667 25.428,31.7633333 25.428,30.9968889" id="Fill-31" fill="#CCC6CF"></path>
            <path d="M9.39066667,32.0497778 L25.453,32.0497778 C25.2273333,31.7583333 25.093,31.3931111 25.093,30.9967778 L25.093,30.9847778 L9.45522222,30.9847778 L9.45522222,31.6907778 C9.45522222,31.8171111 9.43244444,31.9378889 9.39066667,32.0497778 Z M26.8157778,32.7198889 L8.42622222,32.7198889 C8.24122222,32.7198889 8.09122222,32.5697778 8.09122222,32.3847778 C8.09122222,32.1998889 8.24122222,32.0497778 8.42622222,32.0497778 C8.62422222,32.0497778 8.78511111,31.8887778 8.78511111,31.6907778 L8.78511111,30.6497778 C8.78511111,30.4648889 8.93511111,30.3147778 9.12022222,30.3147778 L25.428,30.3147778 C25.613,30.3147778 25.763,30.4648889 25.763,30.6497778 L25.763,30.9967778 C25.763,31.5773333 26.2351111,32.0497778 26.8157778,32.0497778 C27.0007778,32.0497778 27.1507778,32.1998889 27.1507778,32.3847778 C27.1507778,32.5697778 27.0007778,32.7198889 26.8157778,32.7198889 L26.8157778,32.7198889 Z" id="Fill-32" fill="#0A0B09"></path>
            <path d="M33.4083333,1.15711111 L2.87466667,1.15711111 C1.72488889,1.15711111 0.792888889,2.08922222 0.792888889,3.239 L0.792888889,18.8527778 C0.792888889,18.4695556 1.10355556,18.1587778 1.48677778,18.1587778 L8.42622222,18.1587778 C8.80955556,18.1587778 9.12022222,18.4695556 9.12022222,18.8527778 L9.12022222,26.1392222 L25.428,26.1392222 L25.428,15.0361111 C25.428,14.2695556 26.0492222,13.6481111 26.8158889,13.6481111 L35.4901111,13.6481111 L35.4901111,3.239 C35.4901111,2.08922222 34.558,1.15711111 33.4083333,1.15711111" id="Fill-33" fill="#C4E4E3"></path>
            <path d="M9.45522222,25.8041111 L25.093,25.8041111 L25.093,15.036 C25.093,14.086 25.8656667,13.3132222 26.8157778,13.3132222 L35.1551111,13.3132222 L35.1551111,3.239 C35.1551111,2.27577778 34.3715556,1.49222222 33.4084444,1.49222222 L2.87466667,1.49222222 C1.91155556,1.49222222 1.12788889,2.27577778 1.12788889,3.239 L1.12788889,17.8884444 C1.23966667,17.8466667 1.36055556,17.8237778 1.48677778,17.8237778 L8.42622222,17.8237778 C8.99355556,17.8237778 9.45522222,18.2854444 9.45522222,18.8526667 L9.45522222,25.8041111 M25.428,26.4741111 L9.12022222,26.4741111 C8.93511111,26.4741111 8.78511111,26.3241111 8.78511111,26.1391111 L8.78511111,18.8526667 C8.78511111,18.6547778 8.62422222,18.4937778 8.42622222,18.4937778 L1.48677778,18.4937778 C1.28888889,18.4937778 1.12788889,18.6547778 1.12788889,18.8526667 C1.12788889,19.0377778 0.977888889,19.1877778 0.792888889,19.1877778 C0.607777778,19.1877778 0.457888889,19.0377778 0.457888889,18.8526667 L0.457888889,3.239 C0.457888889,1.90633333 1.542,0.822111111 2.87466667,0.822111111 L33.4084444,0.822111111 C34.741,0.822111111 35.8252222,1.90633333 35.8252222,3.239 L35.8252222,13.6482222 C35.8252222,13.8333333 35.6751111,13.9832222 35.4902222,13.9832222 L26.8157778,13.9832222 C26.2351111,13.9832222 25.763,14.4555556 25.763,15.036 L25.763,26.1391111 C25.763,26.3241111 25.613,26.4741111 25.428,26.4741111" id="Fill-34" fill="#0A0B09"></path>
            <polygon id="Fill-35" fill="#CCC6CF" points="9.12022222 26.1392222 25.428 26.1392222 25.428 21.9755556 9.12022222 21.9755556"></polygon>
            <path d="M9.45522222,25.8041111 L25.093,25.8041111 L25.093,22.3105556 L9.45522222,22.3105556 L9.45522222,25.8041111 Z M25.428,26.4741111 L9.12022222,26.4741111 C8.93511111,26.4741111 8.78511111,26.3241111 8.78511111,26.1391111 L8.78511111,21.9755556 C8.78511111,21.7904444 8.93511111,21.6405556 9.12022222,21.6405556 L25.428,21.6405556 C25.613,21.6405556 25.763,21.7904444 25.763,21.9755556 L25.763,26.1391111 C25.763,26.3241111 25.613,26.4741111 25.428,26.4741111 L25.428,26.4741111 Z" id="Fill-36" fill="#0A0B09"></path>
            <path d="M39.6538889,15.036 C39.6538889,14.2695556 39.0324444,13.6481111 38.266,13.6481111 L26.8158889,13.6481111 C26.0492222,13.6481111 25.428,14.2695556 25.428,15.036 L25.428,29.6088889 L39.6538889,29.6088889 L39.6538889,15.036" id="Fill-37" fill="#E8F5F4"></path>
            <path d="M25.763,29.274 L39.3187778,29.274 L39.3187778,15.036 C39.3187778,14.4555556 38.8465556,13.9832222 38.2661111,13.9832222 L26.8157778,13.9832222 C26.2351111,13.9832222 25.763,14.4555556 25.763,15.036 L25.763,29.274 Z M39.6538889,29.944 L25.428,29.944 C25.2431111,29.944 25.093,29.794 25.093,29.6088889 L25.093,15.036 C25.093,14.086 25.8656667,13.3132222 26.8157778,13.3132222 L38.2661111,13.3132222 C39.216,13.3132222 39.9887778,14.086 39.9887778,15.036 L39.9887778,29.6088889 C39.9887778,29.794 39.8387778,29.944 39.6538889,29.944 L39.6538889,29.944 Z" id="Fill-38" fill="#0A0B09"></path>
            <path d="M25.428,29.6088889 L25.428,30.9968889 C25.428,31.7633333 26.0492222,32.3846667 26.8158889,32.3846667 L38.266,32.3846667 C39.0324444,32.3846667 39.6538889,31.7633333 39.6538889,30.9968889 L39.6538889,29.6088889 L25.428,29.6088889" id="Fill-39" fill="#7D7488"></path>
            <path d="M25.763,29.944 L25.763,30.9967778 C25.763,31.5773333 26.2351111,32.0497778 26.8157778,32.0497778 L38.2661111,32.0497778 C38.8465556,32.0497778 39.3187778,31.5773333 39.3187778,30.9967778 L39.3187778,29.944 L25.763,29.944 Z M38.2661111,32.7198889 L26.8157778,32.7198889 C25.8656667,32.7198889 25.093,31.9467778 25.093,30.9967778 L25.093,29.6088889 C25.093,29.424 25.2431111,29.274 25.428,29.274 L39.6538889,29.274 C39.8387778,29.274 39.9887778,29.424 39.9887778,29.6088889 L39.9887778,30.9967778 C39.9887778,31.9467778 39.216,32.7198889 38.2661111,32.7198889 L38.2661111,32.7198889 Z" id="Fill-40" fill="#0A0B09"></path>
            <path d="M1.12788889,30.3147778 L8.78511111,30.3147778 L8.78511111,18.8526667 C8.78511111,18.6547778 8.62422222,18.4937778 8.42622222,18.4937778 L1.48677778,18.4937778 C1.28888889,18.4937778 1.12788889,18.6547778 1.12788889,18.8526667 L1.12788889,30.3147778 M9.12022222,30.9847778 L0.792888889,30.9847778 C0.607777778,30.9847778 0.457888889,30.8347778 0.457888889,30.6497778 L0.457888889,18.8526667 C0.457888889,18.2854444 0.919444444,17.8237778 1.48677778,17.8237778 L8.42622222,17.8237778 C8.99355556,17.8237778 9.45522222,18.2854444 9.45522222,18.8526667 L9.45522222,30.6497778 C9.45522222,30.8347778 9.30522222,30.9847778 9.12022222,30.9847778" id="Fill-41" fill="#0A0B09"></path>
            <path d="M0.792888889,30.6498889 L0.792888889,31.6907778 C0.792888889,32.074 1.10355556,32.3846667 1.48677778,32.3846667 L8.42622222,32.3846667 C8.80955556,32.3846667 9.12022222,32.074 9.12022222,31.6907778 L9.12022222,30.6498889 L0.792888889,30.6498889" id="Fill-42" fill="#7D7488"></path>
            <path d="M1.12788889,30.9847778 L1.12788889,31.6907778 C1.12788889,31.8887778 1.28888889,32.0497778 1.48677778,32.0497778 L8.42622222,32.0497778 C8.62422222,32.0497778 8.78511111,31.8887778 8.78511111,31.6907778 L8.78511111,30.9847778 L1.12788889,30.9847778 Z M8.42622222,32.7198889 L1.48677778,32.7198889 C0.919444444,32.7198889 0.457888889,32.2582222 0.457888889,31.6907778 L0.457888889,30.6497778 C0.457888889,30.4648889 0.607777778,30.3147778 0.792888889,30.3147778 L9.12022222,30.3147778 C9.30522222,30.3147778 9.45522222,30.4648889 9.45522222,30.6497778 L9.45522222,31.6907778 C9.45522222,32.2582222 8.99355556,32.7198889 8.42622222,32.7198889 L8.42622222,32.7198889 Z" id="Fill-43" fill="#0A0B09"></path>
            <polygon id="Fill-44" fill="#FAD67C" points="2.52766667 25.0983333 7.38533333 25.0983333 7.38533333 19.8936667 2.52766667 19.8936667"></polygon>
            <path d="M2.86277778,24.7633333 L7.05044444,24.7633333 L7.05044444,20.2286667 L2.86277778,20.2286667 L2.86277778,24.7633333 Z M7.38533333,25.4333333 L2.52777778,25.4333333 C2.34266667,25.4333333 2.19277778,25.2833333 2.19277778,25.0984444 L2.19277778,19.8935556 C2.19277778,19.7085556 2.34266667,19.5586667 2.52777778,19.5586667 L7.38533333,19.5586667 C7.57044444,19.5586667 7.72033333,19.7085556 7.72033333,19.8935556 L7.72033333,25.0984444 C7.72033333,25.2833333 7.57044444,25.4333333 7.38533333,25.4333333 L7.38533333,25.4333333 Z" id="Fill-45" fill="#0A0B09"></path>
            <polygon id="Fill-46" fill="#FAD67C" points="27.5097778 19.5466667 31.6734444 19.5466667 31.6734444 15.383 27.5097778 15.383"></polygon>
            <path d="M27.8447778,19.2117778 L31.3383333,19.2117778 L31.3383333,15.718 L27.8447778,15.718 L27.8447778,19.2117778 Z M31.6734444,19.8817778 L27.5097778,19.8817778 C27.3248889,19.8817778 27.1747778,19.7317778 27.1747778,19.5466667 L27.1747778,15.383 C27.1747778,15.198 27.3248889,15.048 27.5097778,15.048 L31.6734444,15.048 C31.8583333,15.048 32.0083333,15.198 32.0083333,15.383 L32.0083333,19.5466667 C32.0083333,19.7317778 31.8583333,19.8817778 31.6734444,19.8817778 L31.6734444,19.8817778 Z" id="Fill-47" fill="#0A0B09"></path>
            <polygon id="Fill-48" fill="#FAD67C" points="33.4083333 19.5466667 37.5718889 19.5466667 37.5718889 15.383 33.4083333 15.383"></polygon>
            <path d="M33.7433333,19.2117778 L37.237,19.2117778 L37.237,15.718 L33.7433333,15.718 L33.7433333,19.2117778 Z M37.572,19.8817778 L33.4084444,19.8817778 C33.2234444,19.8817778 33.0733333,19.7317778 33.0733333,19.5466667 L33.0733333,15.383 C33.0733333,15.198 33.2234444,15.048 33.4084444,15.048 L37.572,15.048 C37.757,15.048 37.907,15.198 37.907,15.383 L37.907,19.5466667 C37.907,19.7317778 37.757,19.8817778 37.572,19.8817778 L37.572,19.8817778 Z" id="Fill-49" fill="#0A0B09"></path>
            <polygon id="Fill-60" fill="#FAD67C" points="27.5097778 26.4861111 31.6734444 26.4861111 31.6734444 22.3224444 27.5097778 22.3224444"></polygon>
            <path d="M27.8447778,26.1511111 L31.3383333,26.1511111 L31.3383333,22.6573333 L27.8447778,22.6573333 L27.8447778,26.1511111 Z M31.6734444,26.8212222 L27.5097778,26.8212222 C27.3248889,26.8212222 27.1747778,26.6711111 27.1747778,26.4861111 L27.1747778,22.3224444 C27.1747778,22.1373333 27.3248889,21.9874444 27.5097778,21.9874444 L31.6734444,21.9874444 C31.8583333,21.9874444 32.0083333,22.1373333 32.0083333,22.3224444 L32.0083333,26.4861111 C32.0083333,26.6711111 31.8583333,26.8212222 31.6734444,26.8212222 L31.6734444,26.8212222 Z" id="Fill-61" fill="#0A0B09"></path>
            <polygon id="Fill-62" fill="#FAD67C" points="33.4083333 26.4861111 37.5718889 26.4861111 37.5718889 22.3224444 33.4083333 22.3224444"></polygon>
            <path d="M33.7433333,26.1511111 L37.237,26.1511111 L37.237,22.6573333 L33.7433333,22.6573333 L33.7433333,26.1511111 Z M37.572,26.8212222 L33.4084444,26.8212222 C33.2234444,26.8212222 33.0733333,26.6711111 33.0733333,26.4861111 L33.0733333,22.3224444 C33.0733333,22.1373333 33.2234444,21.9874444 33.4084444,21.9874444 L37.572,21.9874444 C37.757,21.9874444 37.907,22.1373333 37.907,22.3224444 L37.907,26.4861111 C37.907,26.6711111 37.757,26.8212222 37.572,26.8212222 L37.572,26.8212222 Z" id="Fill-63" fill="#0A0B09"></path>
            <polygon id="Fill-66" fill="#FAD67C" points="3.56866667 12.2602222 32.7144444 12.2602222 32.7144444 3.93288889 3.56866667 3.93288889"></polygon>
            <path d="M3.90366667,11.9253333 L32.3793333,11.9253333 L32.3793333,4.268 L3.90366667,4.268 L3.90366667,11.9253333 Z M32.7144444,12.5953333 L3.56866667,12.5953333 C3.38366667,12.5953333 3.23366667,12.4453333 3.23366667,12.2603333 L3.23366667,3.93288889 C3.23366667,3.74788889 3.38366667,3.598 3.56866667,3.598 L32.7144444,3.598 C32.8993333,3.598 33.0493333,3.74788889 33.0493333,3.93288889 L33.0493333,12.2603333 C33.0493333,12.4453333 32.8993333,12.5953333 32.7144444,12.5953333 L32.7144444,12.5953333 Z" id="Fill-67" fill="#0A0B09"></path>
            <path d="M12.0287778,21.6405556 L9.45522222,21.6405556 L9.45522222,21.351 L14.1516667,12.5953333 L16.8806667,12.5953333 L16.1233333,14.0071111 L13.9777778,14.0071111 C13.7927778,14.0071111 13.6427778,14.1571111 13.6427778,14.3421111 C13.6427778,14.5272222 13.7927778,14.6771111 13.9777778,14.6771111 L15.764,14.6771111 L15.1927778,15.742 L13.9777778,15.742 C13.7927778,15.742 13.6427778,15.892 13.6427778,16.077 C13.6427778,16.2621111 13.7927778,16.412 13.9777778,16.412 L14.8333333,16.412 L14.2622222,17.4767778 L13.9777778,17.4767778 C13.7927778,17.4767778 13.6427778,17.6267778 13.6427778,17.8118889 C13.6427778,17.9725556 13.7558889,18.1067778 13.9068889,18.1393333 L12.0287778,21.6405556" id="Fill-68" fill="#E0F2F1"></path>
            <polyline id="Fill-69" fill="#0A0B09" points="11.8491111 21.9755556 9.45522222 21.9755556 9.45522222 21.6405556 12.0287778 21.6405556 11.8491111 21.9755556"></polyline>
            <polyline id="Fill-70" fill="#0A0B09" points="9.45522222 21.9755556 9.12022222 21.9755556 9.45522222 21.351 9.45522222 21.9755556"></polyline>
            <polyline id="Fill-71" fill="#E0F2F1" points="21.7067778 3.598 18.9778889 3.598 20.1073333 1.49222222 22.8363333 1.49222222 21.7067778 3.598"></polyline>
            <polyline id="Fill-72" fill="#0A0B09" points="22.8363333 1.49222222 20.1073333 1.49222222 20.2871111 1.15711111 23.0161111 1.15711111 22.8363333 1.49222222"></polyline>
            <path d="M14.8333333,16.412 L13.9777778,16.412 C13.7927778,16.412 13.6427778,16.2621111 13.6427778,16.077 C13.6427778,15.892 13.7927778,15.742 13.9777778,15.742 L15.1927778,15.742 L14.8333333,16.412" id="Fill-74" fill="#E0F2F1"></path>
            <path d="M14.7716667,14.859436 L13.7957153,14.859436 C13.6107153,14.859436 13.4856567,14.4858291 13.4856567,14.300718 C13.4856567,14.115718 13.7927778,13.742 13.9777778,13.742 L16.1233333,14.0071111 L15.7638889,14.6771111" id="Fill-74-Copy" fill="#E0F2F1"></path>
            <path d="M13.9068889,18.1393333 C13.7558889,18.1067778 13.6427778,17.9725556 13.6427778,17.8118889 C13.6427778,17.6267778 13.7927778,17.4767778 13.9777778,17.4767778 L14.2622222,17.4767778 L13.9068889,18.1393333" id="Fill-75" fill="#E0F2F1"></path>
            <polyline id="Fill-76" fill="#FDEBAE" points="17.24 11.9253333 14.5111111 11.9253333 18.6184444 4.268 21.3474444 4.268 17.24 11.9253333"></polyline>
            <path d="M16.8806667,12.5953333 L14.1516667,12.5953333 L14.5111111,11.9253333 L17.24,11.9253333 L16.8806667,12.5953333 M21.3474444,4.268 L18.6184444,4.268 L18.9778889,3.598 L21.7067778,3.598 L21.3474444,4.268" id="Fill-77" fill="#0A0B09"></path>
            <polyline id="Fill-78" fill="#E0F2F1" points="17.5006667 21.6405556 14.7716667 21.6405556 15.7151111 19.8817778 18.444 19.8817778 17.5006667 21.6405556"></polyline>
            <polyline id="Fill-79" fill="#0A0B09" points="17.3208889 21.9755556 14.592 21.9755556 14.7716667 21.6405556 17.5006667 21.6405556 17.3208889 21.9755556"></polyline>
            <path d="M18.8034444,19.2117778 L16.0745556,19.2117778 L16.6457778,18.1467778 L19.3746667,18.1467778 L18.8034444,19.2117778 M19.734,17.4767778 L17.0051111,17.4767778 L17.5762222,16.412 L20.3051111,16.412 L19.734,17.4767778 M20.6645556,15.742 L17.9356667,15.742 L18.5068889,14.6771111 L21.2357778,14.6771111 L20.6645556,15.742 M21.5951111,14.0071111 L18.8663333,14.0071111 L19.6235556,12.5953333 L22.3524444,12.5953333 L21.5951111,14.0071111 M27.1785556,3.598 L24.4497778,3.598 L25.5792222,1.49222222 L28.3081111,1.49222222 L27.1785556,3.598" id="Fill-80" fill="#E0F2F1"></path>
            <polyline id="Fill-81" fill="#0A0B09" points="28.3081111 1.49222222 25.5792222 1.49222222 25.759 1.15711111 28.4878889 1.15711111 28.3081111 1.49222222"></polyline>
            <polyline id="Fill-82" fill="#E0F2F1" points="21.2357778 14.6771111 18.5068889 14.6771111 18.8663333 14.0071111 21.5951111 14.0071111 21.2357778 14.6771111"></polyline>
            <polyline id="Fill-83" fill="#E0F2F1" points="20.3051111 16.412 17.5762222 16.412 17.9356667 15.742 20.6645556 15.742 20.3051111 16.412"></polyline>
            <polyline id="Fill-84" fill="#E0F2F1" points="19.3746667 18.1467778 16.6457778 18.1467778 17.0051111 17.4767778 19.734 17.4767778 19.3746667 18.1467778"></polyline>
            <polyline id="Fill-85" fill="#E0F2F1" points="18.444 19.8817778 15.7151111 19.8817778 16.0745556 19.2117778 18.8034444 19.2117778 18.444 19.8817778"></polyline>
            <polyline id="Fill-86" fill="#FDEBAE" points="22.7117778 11.9253333 19.983 11.9253333 24.0903333 4.268 26.8192222 4.268 22.7117778 11.9253333"></polyline>
            <path d="M22.3524444,12.5953333 L19.6235556,12.5953333 L19.983,11.9253333 L22.7117778,11.9253333 L22.3524444,12.5953333 M26.8192222,4.268 L24.0903333,4.268 L24.4497778,3.598 L27.1785556,3.598 L26.8192222,4.268" id="Fill-87" fill="#0A0B09"></path>
        </g>
    </g>
</svg>